<?xml version="1.0" encoding="utf-8"?>
<!-- Generator: Adobe Illustrator 25.1.0, SVG Export Plug-In . SVG Version: 6.00 Build 0)  -->
<svg version="1.1" id="Layer_2" xmlns="http://www.w3.org/2000/svg" xmlns:xlink="http://www.w3.org/1999/xlink" x="0px" y="0px"
	 viewBox="0 0 500 500" style="enable-background:new 0 0 500 500;" xml:space="preserve">
<style type="text/css">
	.st0{fill:none;stroke:#000000;stroke-miterlimit:10;}
</style>
<path id="Aorta_17_" class="st0" d="M325.67,52.66c0,0-2.39,0.11-5.9,5.88c-3.52,5.78-7.53,15.24-8.62,17.41
	c-1.09,2.18-4.19,5.69-4.44,7.95s1.91,0.47,3.08-1.29c1.17-1.76,6.41-11.42,8.5-15.19c2.09-3.77,7.38-11.53,7.38-13.79
	s-0.96-3.59-1.88-4.18c-0.92-0.59-7.13-1.96-9.22-3.97c-2.09-2.01-4.31-7.9-4.15-12.92s0.08-21.93,0.08-21.93s-1.04-8.35-11.92-7.85
	s-13.17,4.67-13.17,4.67l-2.66,22.24c0,0-1.63,2.07-4.23,2.15c-2.6,0.08-7.02-1.28-7.02-1.28L269.94,6.5c0,0-4.27-1.02-9.04,0.4
	c-4.77,1.42-11.19,3.36-11.19,3.36s-0.37,17.32-1.12,18.49c-0.75,1.17-10.07,0.9-11.58,0.4c-1.51-0.5-4.75-13.08-4.75-13.08
	s-3.74-1.85-9.01,0.16c-5.27,2.01-7.65,6.14-7.65,6.14s0.86,11.15-1.24,13.58s-7.21,10.29-13.32,16.07
	c-6.11,5.78-8.98,14.05-12.33,18.4c-3.35,4.35-11.86,17.77-15.79,26.39c-3.82,8.38-4.12,19.58-3.31,27.04
	c0.91,8.37,4.69,20.04,4.69,20.04s8.86-5.19,12.02-7c3.15-1.81,9.93-5.2,17.08-7.06c0,0,22.33-16.72,25.8-18.85
	s11.41-10.93,18.25-13.64c6.84-2.7,11.83-7.84,21.37-8c9.54-0.16,17.52,0.08,17.98,4.98c0,0,17.39-1.24,18.07-3.29
	c1.44-4.39,2.2-6.01,2.19-5.84"/>
<path id="VenaCarva_17_" class="st0" d="M308.68,92.2c0.08-3.49,1.77-6.19,5.31-6.19c3.54,0,7.83,2.18,10.19,3.69
	c2.36,1.5,11.98,8.42,15.49,13.83c2.38,3.67,7.27,13.76,2.39,17.3c-4.89,3.54-13.75,1.87-16.87,0.49
	c-6.45-2.85-11.21-11.75-12.61-14.47C311.11,104,308.59,95.88,308.68,92.2z"/>
<path id="Veins_17_" class="st0" d="M282.17,217.82c0,0,14.83,1.48,19.21-0.17c4.39-1.65,9.34-5.11,17.57-7.27
	c7.12-1.86,9.26-4.23,12.51-7.04c3.59-3.1,7.23-12.36,3.08-14.13c-4.15-1.78-2.83-3.42-4.21-6.78c-1.38-3.36-5.92-26.94-35.13-28.23
	c-29.21-1.28-29.98,41.3-30.69,47.99c-0.91,8.48,2.08,18.97-2.14,27.52c-4.1,8.33-19,36.98-24.75,46.01
	c-9.84,15.45-29.6,7.41-40.43,8.82c-10.84,1.41-17.59,4.55-17.59,4.55s11.62-3.61,17.59-3.93c5.97-0.31,25,1.7,25,1.7l-5.97,5.02
	c0,0-9.57-0.28-15.72,2.86c-6.15,3.14-16.75,11.65-19.89,12.19c-3.14,0.55-6.42-4.24-13.4-3.42c-6.97,0.82-9.16,2.87-9.16,2.87
	s3.71-2.26,8.74-2.43s12.03,4.34,12.03,4.34s-4.27,8.12-4.86,11.46s-1.31,7.05-4.9,8.24c-3.58,1.19-9.32,2.39-14.58,1.67
	c-5.26-0.72-11.59-0.6-11.59-0.6s8.95,0.89,11.56,1.25c2.61,0.36,10.47,0.41,14.56-1.69c4.09-2.09,5.16-3.37,6.23-8.79
	c1.07-5.41,5.67-11.9,5.67-11.9s16.14-8.22,19.41-10.01c3.27-1.79,14.3-2.76,14.3-2.76s-8.5,17.94-10.55,22.49
	s-18.81,29.76-29.14,33.27c0,0,14.75-8.18,20.06-17.56c5.31-9.38,10.52-15.38,10.52-15.38s-3.57,26.66-7.08,38.36
	c-3.51,11.7-13.06,28.09-16.15,40.75c-1.77,7.26-9.21,3.86-13.42,6.75c-3.41,2.34-3.54,7.17-8.22,8.34c-4.68,1.17-5.24,2.5-5.24,2.5
	s5.8-0.48,8.4-1.35c2.6-0.87,6.14-7.83,8.15-7.94c2-0.11,6.9,1.2,9.41,4.17c2.51,2.97,19.28,22.84,21.79,38.58
	c0,0-5.05-19.24-9.41-27.51c-4.35-8.27-10.32-12.07-10.1-16.75c0.22-4.68,7.56-15.7,9.3-20.49c1.74-4.79,8.49-22.64,10.34-28.95
	s4.23-33.03,4.37-38.93c0.15-5.9,8.27-20.46,10.01-21.66c1.74-1.2,13.53-9.07,17.4-12.52c3.87-3.45,11.51-15.59,13.81-20.61
	s18.89-27.84,21.2-28.01c9.86-0.7,3.68,13.98,5.39,20.84c1.72,6.87,3.64,10.96,3.13,18.76c-0.5,7.8-3.7,21.61-3.6,30.56
	c0.08,6.79,3.53,22.75,5.04,27.78c1.51,5.03,2.3,6.55,1.54,14.1c-0.75,7.55-3.09,11.94-3.09,11.94s7.38-15.77,7.12-22.06
	c0,0,7.35,4.34,15,13.52c0,0-5.86-13.23-13.07-18.45s-6.43-23.27-6.48-27.13c-0.1-7.61,7.1-20.58,7.1-20.58s2.27,4.36,13.17,17.8
	c3.43,4.22,13.45,18.16,14.3,22.23c0.86,4.07,1.61,9.51,0,13.58s-1.97,10.45-11.19,18.5c-6.34,5.53-11.97,16.01-11.97,16.01
	s14.68-14.6,19.07-19.21c4.39-4.61,5.13-8.52,6.82-14.06c1.63-5.34,2.64-9.6,2.64-9.6s6.2,13.11,6.26,21.71
	c0.05,6.54-1.97,13.46-11.83,24.5c-9.86,11.03-15.73,31.45-15.73,31.45s6.14-9.32,10.86-13.5c0,0,1.48,15.57,2.19,22.29
	c0,0,1.5-13.77,1.71-20.62c0.21-6.86,1.3-12.74,3.34-15.31c2.04-2.57,12.95-17.97,13.92-24.08c0.96-6.11-0.43-10.52-2.78-16.84
	s-0.8-11.69-7.75-19.04c-7.81-8.27-7.92-17.29-7.92-17.29s15.06-2.95,19.55-1.54c2.26,0.71,7.11,3.72,7.11,3.72s-4.54-6.38-7.01-6.7
	s-8.77-1.12-13.27-1.54s-13.6,0.55-15.74-2.88s-12.23-20.97-15.13-24.08c-2.89-3.11-5.4-8.99-5.94-18.95
	c-0.54-9.96-1.1-13.02-0.82-18.13C282.28,225.72,280.02,217.77,282.17,217.82z"/>
<path id="pulmonaryTube2_17_" class="st0" d="M383.28,139.59c-5.49,0.39-9.21,1.26-10.55,9.59c-1.34,8.33,2.81,11.18,6.67,11.18
	s10.94-4.49,10.64-11.63S386.31,139.38,383.28,139.59z"/>
<path id="pulmonaryTube1_17_" class="st0" d="M402.21,149.18c-5.65,0-12.17,0.58-12.17,10.1c0,9.52,6.92,8.29,10.19,8.29
	c3.27,0,8.02-3.93,8.02-9.43C408.25,152.64,406.5,149.18,402.21,149.18z"/>
<path id="pulmonary_17_" class="st0" d="M289.69,154.18c11.8-2.71,52.37-33.36,52.37-33.36l-8.3,6.12c0,0,15.25,3.75,20.07,4.84
	c4.81,1.09,19.87,4.06,23.7,5.48c3.83,1.42,28.63,7.64,30.28,13.1c1.65,5.45,1.65,9.89-1.28,13.05c-4.94,5.33-4.39,4.81-9.92,8.29
	c-4.4,2.77-10.84,5-14.45,13.64c-3.61,8.64-10.67,25.66-16.31,32.38c0,0,2.99,3.33,1.54,18.63c-1.65,17.37-4,21.9-4,21.9
	s-6.98-7.98-11.51-7.43c-4.53,0.55-5.91,4.12-14.42,2.24s-9.08-3.99-12.46-5.53c-3.18-1.45-4.04-4.01-8.13-5.67
	c-4.09-1.66-7.16-9.23-9.59-11.44c-2.43-2.21-10.24-12.09-10.24-12.09"/>
<path id="outside_17_" class="st0" d="M363.4,258.26c0,0,1.58,22.27,1.32,32.74c-0.26,10.47,1.58,20.49,0.1,27.37
	c-3.1,14.47-17.01,34.59-22.12,43.02s-8.63,17.97-13.99,27.68c-5.37,9.71-11.46,24.69-14.27,30.57c-2.81,5.88-5.86,18.68-14.8,27.72
	s-32.27,44.61-59.75,45.49c-20.08,0.64-39.08-23.55-47-29.68s-25.74-29.91-32.16-37.15c-9.77-11.03-20.13-34.74-23.95-42.87
	c-3.17-6.74-14.7-26.57-20.53-46.5c-3.32-11.32-2.87-40.73-3.02-52.74c-0.28-22.57,1.81-27.33,5.03-40.46
	c2.82-11.47,2.09-12.68,3.36-16.26c1.28-3.58,5-8.83,5.3-11.98c0.38-4.08,3.02-8.33,4.42-10.31c1.4-1.98,3.95-6.92,5.89-10.11
	c1.51-2.49,4.15-7.11,5.66-10.01c1.51-2.91,2.66-6.73,4.06-9.62c1.81-3.75,2.6-6.69,3.83-8.34c1.04-1.4-0.16-5.75,2.5-8.29
	c2.6-2.48,5.82-6.59,8.14-7.87c2.33-1.28,4.9-3.09,6.95-3.93c2.12-0.87,3.44-1.83,5.94-2.85"/>
</svg>
