<?xml version="1.0" encoding="utf-8"?>
<!-- Generator: Adobe Illustrator 25.1.0, SVG Export Plug-In . SVG Version: 6.00 Build 0)  -->
<svg version="1.1" id="Layer_2" xmlns="http://www.w3.org/2000/svg" xmlns:xlink="http://www.w3.org/1999/xlink" x="0px" y="0px"
	 viewBox="0 0 500 500" style="enable-background:new 0 0 500 500;" xml:space="preserve">
<style type="text/css">
	.st0{fill:none;stroke:#000000;stroke-miterlimit:10;}
</style>
<path id="Aorta_3_" class="st0" d="M327.88,51.81c0,0-3.6,0.42-7.12,6.19s-7.53,15.24-8.62,17.41c-1.09,2.18-4.19,5.69-4.44,7.95
	s2.1,1.54,3.27-0.22c1.17-1.76,8.37-11.5,10.46-15.27s6.45-12.64,6.45-14.9s-1.26-3.93-2.18-4.52c-0.92-0.59-7.2-3.26-9.29-5.27
	c-2.09-2.01-3.35-5.19-3.18-10.21s0.17-26.62,0.17-26.62s-2.85-6.03-13.73-5.52s-12.39,4.86-12.39,4.86l-0.75,23.27
	c0,0-3.77,1.59-6.36,1.67c-2.6,0.08-6.78-1.84-6.78-1.84V6.35c0,0-5.11-1.09-9.88,0.33c-4.77,1.42-11.38,4.69-11.38,4.69
	s-0.42,16.83-1.17,18s-10.13,1.34-11.64,0.84c-1.51-0.5-5.61-12.14-5.61-12.14s-3.52-1.84-8.79,0.17c-5.27,2.01-8.04,5.19-8.04,5.19
	s0.59,9.54-1.51,11.97c-2.09,2.43-12.39,8.87-18.5,14.65c-6.11,5.78-10.46,11.97-13.81,16.32c-3.35,4.35-10.63,17.33-13.64,26.03
	c-3.01,8.71-4.35,19.34-1.84,27.37c2.51,8.04,5.86,19,5.86,19s9.82-2.96,12.97-4.77c3.15-1.81,8.35-5.44,15.53-5.12
	c0,0,23.33-17.1,26.79-19.23c3.47-2.13,8.99-13.39,15.83-16.1c6.84-2.7,15.74-4.61,25.28-4.77c9.54-0.16,22.26,0.32,24.17,3.02
	c0,0,12.34,0.93,13.62-0.82c1.27-1.75,0.46-6.35,0.46-6.35"/>
<path id="VenaCarva_3_" class="st0" d="M309.68,91.65c0.08-3.49,1.77-6.19,5.31-6.19s7.83,2.18,10.19,3.69
	c2.36,1.5,11.98,8.42,15.49,13.83c2.38,3.67,7.27,13.76,2.39,17.3c-4.89,3.54-13.75,1.87-16.87,0.49
	c-6.45-2.85-11.21-11.75-12.61-14.47C312.11,103.46,309.59,95.33,309.68,91.65z"/>
<path id="Veins_3_" class="st0" d="M287.31,224.33c0,0,15.79,0.79,17.57-3.55c1.78-4.34,10.46-6.71,18.95-7.3
	c8.49-0.59,18.16-0.99,19.54-5.53c1.38-4.54,4.15-19.74,0-21.52c-4.15-1.78-10.66-1.18-12.04-4.54
	c-1.38-3.36-5.92-26.94-35.13-28.23c-29.21-1.28-37.5,41.94-37.11,48.66c0.39,6.71,4.71,17.17-0.01,25.46s-14.79,37.5-21.7,45.79
	s-31.06,8.52-41.89,9.94c-10.84,1.41-17.59,4.55-17.59,4.55s11.62-3.61,17.59-3.93c5.97-0.31,31.41-1.57,31.41-1.57l-12.72,10.36
	c0,0-9.57-0.28-15.72,2.86c-6.15,3.14-16.4,9.57-19.55,10.12c-3.14,0.55-6.42-4.24-13.4-3.42s-9.16,2.87-9.16,2.87
	s3.71-2.26,8.74-2.43c5.03-0.17,12.03,4.34,12.03,4.34s-4.27,8.12-4.86,11.46c-0.6,3.35-1.31,7.05-4.9,8.24
	c-3.58,1.19-9.32,2.39-14.58,1.67c-5.26-0.72-11.59-0.6-11.59-0.6s8.95,0.89,11.56,1.25s10.47,0.41,14.56-1.69
	c4.09-2.09,5.16-3.37,6.23-8.79c1.07-5.41,5.67-11.9,5.67-11.9s16.14-8.22,19.41-10.01c3.27-1.79,14.3-2.76,14.3-2.76
	s-8.5,17.94-10.55,22.49s-18.81,29.76-29.14,33.27c0,0,14.75-8.18,20.06-17.56c5.31-9.38,10.52-15.38,10.52-15.38
	s-3.57,26.66-7.08,38.36c-3.51,11.7-11.41,28.37-13.45,41.24c-2.05,12.87-10.53,5.85-14.62,6.43c-4.09,0.58-6.73,11.7-11.41,12.87
	c-4.68,1.17-6.23,1.06-6.23,1.06s4.71,0.87,7.32,0c2.6-0.87,8.89-12.68,10.89-12.79c2-0.11,12.03,7.51,14.54,10.47
	s14.38,18.26,16.89,34c0,0-2.53-15.82-6.88-24.09c-4.35-8.27-9.9-12.95-9.69-17.63s1.74-17.09,3.48-21.87
	c1.74-4.79,8.49-22.64,10.34-28.95c1.85-6.31,7.91-35.67,8.05-41.57c0.15-5.9,8.27-20.46,10.01-21.66
	c1.74-1.2,15.78-9.9,18.83-13.39c3.05-3.48,13.52-19.15,13.52-19.15s12.94-29.33,22.75-28.11c9.81,1.23,3.68,13.98,5.39,20.84
	c1.72,6.87,12.46,18.81,11.95,26.61s-4.78,16.36-4.78,23.15c0,6.79,2.77,19.88,4.28,24.91c1.51,5.03,2.52,9.56,1.76,17.11
	c-0.75,7.55-0.5,10.82-0.5,10.82s3.77-12.83,3.52-19.12c0,0,9.81,4.28,11.57,14.34c0,0-1.93-12.69-9.14-17.92
	s-7.93-22.92-8.03-26.78c-0.11-3.86,1.18-22.6,6.11-22.18c4.93,0.43,10.93,9.32,13.82,13.93c2.89,4.61,19.82,18.85,20.68,22.92
	c0.86,4.07,2.36,18.21,0.75,22.28c-1.61,4.07-8.41,14.52-14.35,20.46c-5.95,5.95-10.61,14.35-10.61,14.35s12.11-13.39,16.5-18
	c4.39-4.61,11.25-14.14,11.68-19.71s-0.43-9.32,1.61-9.86c2.04-0.54,6.75,11.36,6.96,17.89c0.21,6.53-2.04,19.5-11.89,30.53
	c-9.86,11.03-22.5,37.6-22.5,37.6s9-14.25,13.71-18.43c0,0,0,13.82-1.29,19.6c0,0,4.71-13.07,4.93-19.93
	c0.21-6.86,7.93-16.5,9.96-19.07c2.04-2.57,9.43-13.18,10.39-19.28c0.96-6.11-1.07-17.14-3.43-23.46c-2.36-6.32-0.64-9-9-16.71
	c-8.36-7.71-6.86-17.14-6.86-17.14s18.21-5.46,21.75-2.36c3.54,3.11,6.43,4.18,6.43,4.18s-5.36-6.32-7.82-6.64
	c-2.46-0.32-15.32,0.75-19.82,0.32c-4.5-0.43-9.21,0-11.36-3.43c-2.14-3.43-17.57-24.96-20.46-28.07c-2.89-3.11-6.64-5.03-7.18-15
	c-0.54-9.96-4.18-16.18-2.79-21.1C284.42,224.99,285.16,224.28,287.31,224.33z"/>
<path id="pulmonaryTube2_3_" class="st0" d="M385.31,139.07c-5.49,0.39-8.52,1.32-9.86,9.65c-1.34,8.33,4.46,10.56,8.33,10.56
	s8.47-4.31,8.18-11.45C391.66,140.69,388.34,138.85,385.31,139.07z"/>
<path id="pulmonaryTube1_3_" class="st0" d="M405.02,148.12c-5.65,0-10.69,1.64-10.69,11.15c0,9.52,6.1,9.37,9.37,9.37
	c3.27,0,6.84-5.65,6.84-11.15C410.54,151.99,409.32,148.12,405.02,148.12z"/>
<path id="pulmonary_3_" class="st0" d="M290.69,153.64c11.8-2.71,52.37-33.36,52.37-33.36l-8.3,6.12c0,0,15.82,0.43,20.64,1.53
	c4.81,1.09,20.01,4.16,23.84,5.58c3.83,1.42,27.92,10.87,29.57,16.32c1.65,5.45,3.12,6.81,0.56,13.29
	c-2.57,6.48-6.07,6.26-10.88,8.23c-4.81,1.97-12.58,4.59-16.19,13.23c-3.61,8.64-9.51,30.07-14.44,33.14c0,0,6.08,4.7,5.43,17.39
	c-0.66,12.69-4.91,23.73-4.91,23.73s-5.06-8.73-9.59-8.18s-3.54,3.65-12.04,1.77c-8.51-1.88-12.71-8.4-16.13-7.74
	c-3.43,0.66-6.74-6.63-10.83-8.29c-4.09-1.66-9.06-4.31-11.49-6.52c-2.43-2.21-6.23-6.96-6.23-6.96"/>
<path id="outside_3_" class="st0" d="M368.38,258.84c0,0,3.61,20.93,3.35,31.41c-0.26,10.47,1.07,20.63-0.4,27.51
	c-3.1,14.47-18.19,38-23.3,46.43c-5.11,8.43-6.64,15.07-12.01,24.78c-5.37,9.71-12.01,25.29-14.82,31.17
	c-2.81,5.88-9.36,18.75-18.3,27.8s-38.67,45.53-61.66,45.78c-22.99,0.26-41.11-23.24-49.03-29.37
	c-7.92-6.13-27.31-25.75-33.95-33.16c-6.64-7.41-21.46-36.73-25.8-44.14c-4.34-7.41-20.87-37.88-24.45-49.12
	c-3.58-11.24-5.77-43.22-5.77-55.23s2.95-36.2,5.77-47.99c2.8-11.72,2.46-14.31,3.73-17.88c1.28-3.58,4.28-7.5,5.21-10.53
	c0.93-3.02,2.57-5.83,3.96-7.81c1.4-1.98,5.32-13.69,7.81-15.62c2.3-1.78,6.18-5.92,7.7-8.83c1.51-2.91,2.57-8.77,4.78-11.09
	c2.21-2.33,5.52-3.57,5.52-5.32s1.16-4.94,4.41-6.45c3.26-1.51,7.63-4.83,9.96-6.11c2.33-1.28,7.03-4.53,9.17-4.53
	s3.18-1.76,3.18-1.76"/>
</svg>
