<?xml version="1.0" encoding="utf-8"?>
<!-- Generator: Adobe Illustrator 25.1.0, SVG Export Plug-In . SVG Version: 6.00 Build 0)  -->
<svg version="1.1" id="Layer_2" xmlns="http://www.w3.org/2000/svg" xmlns:xlink="http://www.w3.org/1999/xlink" x="0px" y="0px"
	 viewBox="0 0 500 500" style="enable-background:new 0 0 500 500;" xml:space="preserve">
<style type="text/css">
	.st0{fill:none;stroke:#000000;stroke-miterlimit:10;}
</style>
<path id="Aorta_14_" class="st0" d="M326.66,52.12c0,0-2.39,0.11-5.9,5.88s-7.53,15.24-8.62,17.41c-1.09,2.18-4.19,5.69-4.44,7.95
	s1.91,0.47,3.08-1.29s6.41-11.42,8.5-15.19c2.09-3.77,7.38-11.53,7.38-13.79s-0.96-3.59-1.88-4.18c-0.92-0.59-7.13-1.96-9.22-3.97
	s-4.31-7.9-4.15-12.92s0.08-21.93,0.08-21.93s-1.04-8.35-11.92-7.85s-13.17,4.67-13.17,4.67l-2.66,22.24c0,0-1.63,2.07-4.23,2.15
	c-2.6,0.08-7.02-1.28-7.02-1.28l-1.56-24.08c0,0-4.27-1.02-9.04,0.4c-4.77,1.42-11.19,3.36-11.19,3.36s-0.37,17.32-1.12,18.49
	c-0.75,1.17-10.07,0.9-11.58,0.4c-1.51-0.5-4.75-13.08-4.75-13.08s-3.74-1.85-9.01,0.16c-5.27,2.01-7.65,6.14-7.65,6.14
	s0.86,11.15-1.24,13.58c-2.09,2.43-7.21,10.29-13.32,16.07c-6.11,5.78-8.98,14.05-12.33,18.4c-3.35,4.35-10.38,17.72-14.31,26.33
	c-3.82,8.38-5.6,19.64-4.79,27.09c0.91,8.37,4.69,20.04,4.69,20.04s8.86-5.19,12.02-7c3.15-1.81,7.45-5.59,14.6-7.45
	c0,0,23.33-17.1,26.79-19.23c3.47-2.13,8.99-13.39,15.83-16.1c6.84-2.7,15.74-4.61,25.28-4.77c9.54-0.16,22.26,0.32,24.17,3.02
	c0,0,11.2,0.72,11.88-1.33c1.44-4.39,2.2-6.01,2.19-5.84"/>
<path id="VenaCarva_14_" class="st0" d="M309.68,91.65c0.08-3.49,1.77-6.19,5.31-6.19s7.83,2.18,10.19,3.69
	c2.36,1.5,11.98,8.42,15.49,13.83c2.38,3.67,7.27,13.76,2.39,17.3c-4.89,3.54-13.75,1.87-16.87,0.49
	c-6.45-2.85-11.21-11.75-12.61-14.47C312.11,103.46,309.59,95.33,309.68,91.65z"/>
<path id="Veins_14_" class="st0" d="M283.17,217.28c0,0,14.88,0.53,19.23-0.92c4.45-1.48,9.32-4.36,17.55-6.51
	c7.12-1.86,4.09-4.1,7.34-6.9c3.59-3.1,4.76-11.24,3.75-15.64c-0.73-3.18-0.29-7.7-1.68-11.06c-1.38-3.36-4.71-29.31-33.17-22.58
	c-24.15,5.72-29.87,39.2-30.59,45.89c-0.91,8.48,4.98,15.4-1.88,30.23c-3.89,8.43-19.37,36.38-25.12,45.41
	c-9.84,15.45-32.29,6.92-43.13,8.33c-10.84,1.41-17.59,4.55-17.59,4.55s11.62-3.61,17.59-3.93c5.97-0.31,27.69,2.19,27.69,2.19
	l-9.62,4.97c0,0-9.98-0.23-16.13,2.92c-6.15,3.14-15.38,11.15-18.52,11.7c-3.14,0.55-6.42-4.24-13.4-3.42s-9.16,2.87-9.16,2.87
	s3.71-2.26,8.74-2.43c5.03-0.17,12.03,4.34,12.03,4.34s-4.27,8.12-4.86,11.46c-0.6,3.35-1.31,7.05-4.9,8.24
	c-3.58,1.19-9.32,2.39-14.58,1.67c-5.26-0.72-11.59-0.6-11.59-0.6s8.95,0.89,11.56,1.25s10.47,0.41,14.56-1.69
	c4.09-2.09,5.16-3.37,6.23-8.79c1.07-5.41,5.67-11.9,5.67-11.9s16.14-8.22,19.41-10.01c3.27-1.79,14.3-2.76,14.3-2.76
	s-8.5,17.94-10.55,22.49s-18.81,29.76-29.14,33.27c0,0,14.75-8.18,20.06-17.56c5.31-9.38,10.52-15.38,10.52-15.38
	s-3.57,26.66-7.08,38.36c-3.51,11.7-11.41,28.37-13.45,41.24c-2.05,12.87-10.53,5.85-14.62,6.43c-4.09,0.58-5.6,10.86-10.28,12.03
	c-4.68,1.17-3.97,1.3-3.97,1.3s4.35,0.23,6.96-0.65c2.6-0.87,6.66-10.62,8.66-10.73c2-0.11,11.23,6.69,13.74,9.66
	s14.38,18.26,16.89,34c0,0-2.53-15.82-6.88-24.09c-4.35-8.27-9.9-12.95-9.69-17.63s4.99-17.09,6.73-21.87
	c1.74-4.79,8.49-22.64,10.34-28.95c1.85-6.31,4.66-35.67,4.81-41.57c0.15-5.9,8.27-20.46,10.01-21.66
	c1.74-1.2,16.22-8.58,20.1-12.03c3.87-3.45,11.63-15.07,13.94-20.08s16.82-29.29,21.07-28.53c9.73,1.74,3.68,13.98,5.39,20.84
	c1.72,6.87,12.46,18.81,11.95,26.61s-4.78,16.36-4.78,23.15c0,6.79,2.77,19.88,4.28,24.91c1.51,5.03,2.52,9.56,1.76,17.11
	c-0.75,7.55-0.5,10.82-0.5,10.82s3.77-12.83,3.52-19.12c0,0,9.81,4.28,11.57,14.34c0,0-1.93-12.69-9.14-17.92
	s-7.93-22.92-8.03-26.78c-0.11-3.86,1.18-22.6,6.11-22.18c4.93,0.43,9.04,9.52,11.93,14.12c2.89,4.61,17.84,20.45,18.7,24.52
	c0.86,4.07,1.2,13.81-0.41,17.88c-1.61,4.07-5.36,11.64-11.31,17.59c-5.95,5.95-10.61,14.35-10.61,14.35s12.11-13.39,16.5-18
	c4.39-4.61,7.3-8.61,8.99-14.15c1.63-5.34,0.52-10.4,2.55-10.93c2.04-0.54,5.51,12.06,5.72,18.6c0.21,6.53-0.46,18.5-10.32,29.53
	c-9.86,11.03-21.97,31.37-21.97,31.37s7.85-6.65,12.57-10.83c0,0,0.98,15.78-0.31,21.56c0,0,4.89-17.36,5.11-24.22
	c0.21-6.86,6.24-14.7,8.28-17.27c2.04-2.57,10.68-12.39,11.65-18.49c0.96-6.11-0.2-15.14-2.55-21.46s-3.27-11.75-10.22-19.11
	c-7.81-8.27-7.56-16.55-7.56-16.55s22.53-5.98,26.07-2.88c3.54,3.11,6.43,4.18,6.43,4.18s-5.36-6.32-7.82-6.64
	c-2.46-0.32-15.32,0.75-19.82,0.32c-4.5-0.43-9.21,0-11.36-3.43c-2.14-3.43-17.57-24.96-20.46-28.07c-2.89-3.11-6.64-5.03-7.18-15
	c-0.54-9.96-3.06-15.99-2.79-21.1C283.28,225.18,281.02,217.22,283.17,217.28z"/>
<path id="pulmonaryTube2_14_" class="st0" d="M385.31,139.07c-5.49,0.39-8.52,1.32-9.86,9.65c-1.34,8.33,4.46,10.56,8.33,10.56
	s8.47-4.31,8.18-11.45C391.66,140.69,388.34,138.85,385.31,139.07z"/>
<path id="pulmonaryTube1_14_" class="st0" d="M405.02,148.12c-5.65,0-10.69,1.64-10.69,11.15c0,9.52,6.1,9.37,9.37,9.37
	c3.27,0,6.84-5.65,6.84-11.15C410.54,151.99,409.32,148.12,405.02,148.12z"/>
<path id="pulmonary_14_" class="st0" d="M291.31,155.3c11.8-2.71,51.75-35.01,51.75-35.01l-8.3,6.12c0,0,15.82,0.43,20.64,1.53
	c4.81,1.09,20.01,4.16,23.84,5.58c3.83,1.42,27.92,10.87,29.57,16.32c1.65,5.45,3.12,6.81,0.56,13.29
	c-2.57,6.48-6.07,6.26-10.88,8.23c-4.81,1.97-11.71,4.82-15.32,13.46c-3.61,8.64-7.78,28.76-15.3,32.91c0,0,6.77,3.07,6.03,18.44
	c-0.85,17.42-5.51,22.68-5.51,22.68s-5.06-8.73-9.59-8.18s-3.54,3.65-12.04,1.77c-8.51-1.88-12.71-8.4-16.13-7.74
	c-3.43,0.66-6.74-6.63-10.83-8.29c-4.09-1.66-9.06-4.31-11.49-6.52c-2.43-2.21-10.78-12.92-10.78-12.92"/>
<path id="outside_14_" class="st0" d="M368.38,258.84c0,0,3.61,20.93,3.35,31.41c-0.26,10.47,0.37,20.74-1.1,27.62
	c-3.1,14.47-16.98,38.34-22.09,46.77s-7.15,14.62-12.52,24.33c-5.37,9.71-12.74,25.24-15.55,31.12
	c-2.81,5.88-9.03,18.31-17.97,27.35c-8.94,9.05-34.13,43.99-61.61,44.87c-20.08,0.64-39.08-23.55-47-29.68
	c-7.92-6.13-26.41-27.37-32.83-34.62c-9.77-11.03-21.41-34.44-25.23-42.58c-3.7-7.87-16.75-30.66-22.2-49.27
	c-3.32-11.32-4.85-40.57-5-52.58c-0.28-22.57,5.51-32.19,6.44-45.68c0.8-11.62,3.34-10.89,4.61-14.47
	c1.28-3.58,2.44-7.22,2.73-10.37c0.38-4.08,3.27-6.85,4.67-8.83c1.4-1.98,2.9-6.83,4.84-10.02c1.51-2.49,4.64-6.32,6.15-9.23
	c1.51-2.91,4.74-7.29,6.13-10.18c1.81-3.75,3.71-7.5,4.94-9.15c1.04-1.4,2.46-5.15,5.12-7.69c2.6-2.48,5.82-6.59,8.14-7.87
	c2.33-1.28,4.9-3.09,6.95-3.93c2.12-0.87,3.44-1.83,5.94-2.85"/>
</svg>
