<?xml version="1.0" encoding="utf-8"?>
<!-- Generator: Adobe Illustrator 25.1.0, SVG Export Plug-In . SVG Version: 6.00 Build 0)  -->
<svg version="1.1" id="Layer_2" xmlns="http://www.w3.org/2000/svg" xmlns:xlink="http://www.w3.org/1999/xlink" x="0px" y="0px"
	 viewBox="0 0 500 500" style="enable-background:new 0 0 500 500;" xml:space="preserve">
<style type="text/css">
	.st0{fill:none;stroke:#000000;stroke-miterlimit:10;}
</style>
<path id="Aorta_13_" class="st0" d="M327.88,51.81c0,0-3.6,0.42-7.12,6.19s-7.53,15.24-8.62,17.41c-1.09,2.18-4.19,5.69-4.44,7.95
	s2.1,1.54,3.27-0.22c1.17-1.76,8.37-11.5,10.46-15.27s6.45-12.64,6.45-14.9s-1.26-3.93-2.18-4.52c-0.92-0.59-8.22-2.51-10.32-4.52
	s-3.26-7.15-3.09-12.17s1.01-20.76,1.01-20.76s-2.84-9.27-13.72-8.77s-13.17,4.67-13.17,4.67l-1.44,22.07c0,0-2.21,1.56-4.8,1.64
	c-2.6,0.08-6.78-1.84-6.78-1.84l-1.56-22.67c0,0-5.14-1.19-9.92,0.24c-4.77,1.42-11.19,3.36-11.19,3.36s0.66,17.29-0.09,18.46
	c-0.75,1.17-9.59,1.43-11.1,0.93c-1.51-0.5-5.59-12.31-5.59-12.31s-3.58-1.54-8.86,0.47c-5.27,2.01-8.19,6.17-8.19,6.17
	s0.59,9.54-1.51,11.97c-2.09,2.43-7.21,10.29-13.32,16.07c-6.11,5.78-9.55,13.27-12.9,17.63c-3.35,4.35-10.78,16.87-13.79,25.58
	c-3.01,8.71-4.65,21.12-3.84,28.57c0.91,8.37,5.63,19.26,5.63,19.26s7.02-4.37,10.18-6.18c3.15-1.81,7.45-5.59,14.6-7.45
	c0,0,23.33-17.1,26.79-19.23c3.47-2.13,8.99-13.39,15.83-16.1c6.84-2.7,15.74-4.61,25.28-4.77c9.54-0.16,22.26,0.32,24.17,3.02
	c0,0,12.34,0.93,13.62-0.82c1.27-1.75,0.46-6.35,0.46-6.35"/>
<path id="VenaCarva_13_" class="st0" d="M309.68,91.65c0.08-3.49,1.77-6.19,5.31-6.19s7.83,2.18,10.19,3.69
	c2.36,1.5,11.98,8.42,15.49,13.83c2.38,3.67,7.27,13.76,2.39,17.3c-4.89,3.54-13.75,1.87-16.87,0.49
	c-6.45-2.85-11.21-11.75-12.61-14.47C312.11,103.46,309.59,95.33,309.68,91.65z"/>
<path id="Veins_13_" class="st0" d="M283.23,220.74c0,0,15.89,0.21,19.15-3.63c3.03-3.58,9.34-5.11,17.57-7.27
	c7.12-1.86,9.26-4.23,12.51-7.04c3.59-3.1,9.72-13.33,5.57-15.11c-4.15-1.78-5.32-2.45-6.7-5.8c-1.38-3.36-5.92-26.94-35.13-28.23
	c-29.21-1.28-32.83,40.9-33.54,47.58c-0.91,8.48,2.61,19.52-1.61,28.08c-4.1,8.33-16.68,36.83-22.43,45.85
	c-9.84,15.45-32.29,6.92-43.13,8.33c-10.84,1.41-17.59,4.55-17.59,4.55s11.62-3.61,17.59-3.93c5.97-0.31,27.69,2.19,27.69,2.19
	l-9.01,6.6c0,0-9.57-0.28-15.72,2.86c-6.15,3.14-16.4,9.57-19.55,10.12c-3.14,0.55-6.42-4.24-13.4-3.42s-9.16,2.87-9.16,2.87
	s3.71-2.26,8.74-2.43c5.03-0.17,12.03,4.34,12.03,4.34s-4.27,8.12-4.86,11.46c-0.6,3.35-1.31,7.05-4.9,8.24
	c-3.58,1.19-9.32,2.39-14.58,1.67c-5.26-0.72-11.59-0.6-11.59-0.6s8.95,0.89,11.56,1.25s10.47,0.41,14.56-1.69
	c4.09-2.09,5.16-3.37,6.23-8.79c1.07-5.41,5.67-11.9,5.67-11.9s16.14-8.22,19.41-10.01c3.27-1.79,14.3-2.76,14.3-2.76
	s-8.5,17.94-10.55,22.49s-18.81,29.76-29.14,33.27c0,0,14.75-8.18,20.06-17.56c5.31-9.38,10.52-15.38,10.52-15.38
	s-3.57,26.66-7.08,38.36c-3.51,11.7-11.41,28.37-13.45,41.24c-2.05,12.87-10.53,5.85-14.62,6.43c-4.09,0.58-5.6,10.86-10.28,12.03
	c-4.68,1.17-3.97,1.3-3.97,1.3s4.35,0.23,6.96-0.65c2.6-0.87,6.66-10.62,8.66-10.73c2-0.11,11.23,6.69,13.74,9.66
	s14.38,18.26,16.89,34c0,0-2.53-15.82-6.88-24.09c-4.35-8.27-9.9-12.95-9.69-17.63s4.31-16.14,6.05-20.93
	c1.74-4.79,8.49-22.64,10.34-28.95c1.85-6.31,5.34-36.62,5.49-42.52c0.15-5.9,8.27-20.46,10.01-21.66
	c1.74-1.2,16.22-8.58,20.1-12.03c3.87-3.45,10.24-14.93,12.54-19.94c2.3-5.01,12.66-29.9,22.47-28.67
	c9.81,1.23,3.68,13.98,5.39,20.84c1.72,6.87,12.46,18.81,11.95,26.61s-4.78,16.36-4.78,23.15c0,6.79,2.77,19.88,4.28,24.91
	c1.51,5.03,2.52,9.56,1.76,17.11c-0.75,7.55-0.5,10.82-0.5,10.82s3.77-12.83,3.52-19.12c0,0,9.81,4.28,11.57,14.34
	c0,0-1.93-12.69-9.14-17.92s-7.93-22.92-8.03-26.78c-0.11-3.86,1.18-22.6,6.11-22.18c4.93,0.43,10.93,9.32,13.82,13.93
	c2.89,4.61,19.82,18.85,20.68,22.92c0.86,4.07,2.36,18.21,0.75,22.28c-1.61,4.07-8.41,14.52-14.35,20.46
	c-5.95,5.95-10.61,14.35-10.61,14.35s12.11-13.39,16.5-18c4.39-4.61,11.25-14.14,11.68-19.71s-0.43-9.32,1.61-9.86
	c2.04-0.54,6.75,11.36,6.96,17.89c0.21,6.53-2.04,19.5-11.89,30.53c-9.86,11.03-22.5,37.6-22.5,37.6s9-14.25,13.71-18.43
	c0,0,0,13.82-1.29,19.6c0,0,4.71-13.07,4.93-19.93c0.21-6.86,7.93-16.5,9.96-19.07c2.04-2.57,9.43-13.18,10.39-19.28
	c0.96-6.11-1.07-17.14-3.43-23.46c-2.36-6.32-0.64-9-9-16.71c-8.36-7.71-6.86-17.14-6.86-17.14s18.21-5.46,21.75-2.36
	c3.54,3.11,6.43,4.18,6.43,4.18s-5.36-6.32-7.82-6.64c-2.46-0.32-15.32,0.75-19.82,0.32c-4.5-0.43-9.21,0-11.36-3.43
	c-2.14-3.43-17.57-24.96-20.46-28.07c-2.89-3.11-6.64-5.03-7.18-15c-0.54-9.96-4.18-16.18-2.79-21.1
	C284.42,224.99,281.08,220.69,283.23,220.74z"/>
<path id="pulmonaryTube2_13_" class="st0" d="M385.31,139.07c-5.49,0.39-8.52,1.32-9.86,9.65c-1.34,8.33,4.46,10.56,8.33,10.56
	s8.47-4.31,8.18-11.45C391.66,140.69,388.34,138.85,385.31,139.07z"/>
<path id="pulmonaryTube1_13_" class="st0" d="M405.02,148.12c-5.65,0-10.69,1.64-10.69,11.15c0,9.52,6.1,9.37,9.37,9.37
	c3.27,0,6.84-5.65,6.84-11.15C410.54,151.99,409.32,148.12,405.02,148.12z"/>
<path id="pulmonary_13_" class="st0" d="M290.69,153.64c11.8-2.71,52.37-33.36,52.37-33.36l-8.3,6.12c0,0,15.82,0.43,20.64,1.53
	c4.81,1.09,20.01,4.16,23.84,5.58c3.83,1.42,27.92,10.87,29.57,16.32c1.65,5.45,3.12,6.81,0.56,13.29
	c-2.57,6.48-6.07,6.26-10.88,8.23c-4.81,1.97-11.71,4.82-15.32,13.46c-3.61,8.64-7.78,28.76-15.3,32.91c0,0,6.77,3.07,6.03,18.44
	c-0.85,17.42-5.51,22.68-5.51,22.68s-5.06-8.73-9.59-8.18s-3.54,3.65-12.04,1.77c-8.51-1.88-12.71-8.4-16.13-7.74
	c-3.43,0.66-6.74-6.63-10.83-8.29c-4.09-1.66-9.06-4.31-11.49-6.52c-2.43-2.21-9.16-10.93-9.16-10.93"/>
<path id="outside_13_" class="st0" d="M368.38,258.84c0,0,3.61,20.93,3.35,31.41c-0.26,10.47,0.37,20.74-1.1,27.62
	c-3.1,14.47-16.98,38.34-22.09,46.77s-7.15,14.62-12.52,24.33c-5.37,9.71-12.74,25.24-15.55,31.12
	c-2.81,5.88-9.03,18.31-17.97,27.35c-8.94,9.05-34.13,43.99-61.61,44.87c-20.08,0.64-39.08-23.55-47-29.68
	c-7.92-6.13-26.41-27.37-32.83-34.62c-9.77-11.03-21.41-34.44-25.23-42.58c-3.7-7.87-16.75-30.66-22.2-49.27
	c-3.32-11.32-3.39-40.26-3.53-52.27c-0.28-22.57,2.81-31.93,6.33-44.98c3.14-11.63,2.62-11.75,3.9-15.33c1.28-3.58,4-6.73,4.3-9.88
	c0.38-4.08,2.08-7.17,3.48-9.15c1.4-1.98,3.87-6.03,4.94-9.61c0.84-2.79,4.8-6.7,6.31-9.61c1.51-2.91,3.46-7.63,4.85-10.52
	c1.81-3.75,3.71-7.5,4.94-9.15c1.04-1.4,2.46-5.15,5.12-7.69c2.6-2.48,5.82-6.59,8.14-7.87c2.33-1.28,4.9-3.09,6.95-3.93
	c2.12-0.87,5.28-2.65,7.78-3.67"/>
</svg>
