<?xml version="1.0" encoding="utf-8"?>
<!-- Generator: Adobe Illustrator 25.1.0, SVG Export Plug-In . SVG Version: 6.00 Build 0)  -->
<svg version="1.1" id="Layer_2" xmlns="http://www.w3.org/2000/svg" xmlns:xlink="http://www.w3.org/1999/xlink" x="0px" y="0px"
	 viewBox="0 0 500 500" style="enable-background:new 0 0 500 500;" xml:space="preserve">
<style type="text/css">
	.st0{fill:none;stroke:#000000;stroke-miterlimit:10;}
</style>
<path id="Aorta_18_" class="st0" d="M327.03,52.07c0,0-2.39,0.11-5.9,5.88s-7.53,15.24-8.62,17.41c-1.09,2.18-4.19,5.69-4.44,7.95
	s1.91,0.47,3.08-1.29c1.17-1.76,6.41-11.42,8.5-15.19s7.38-11.53,7.38-13.79s-0.96-3.59-1.88-4.18c-0.92-0.59-7.13-1.96-9.22-3.97
	c-2.09-2.01-4.31-7.9-4.15-12.92s0.08-21.93,0.08-21.93s-1.04-8.35-11.92-7.85s-13.17,4.67-13.17,4.67l-2.66,22.24
	c0,0-1.63,2.07-4.23,2.15c-2.6,0.08-7.02-1.28-7.02-1.28L271.3,5.9c0,0-4.27-1.02-9.04,0.4c-4.77,1.42-11.19,3.36-11.19,3.36
	s-0.37,17.32-1.12,18.49c-0.75,1.17-10.07,0.9-11.58,0.4c-1.51-0.5-4.75-13.08-4.75-13.08s-3.74-1.85-9.01,0.16
	c-5.27,2.01-7.65,6.14-7.65,6.14s0.86,11.15-1.24,13.58s-7.21,10.29-13.32,16.07c-6.11,5.78-8.98,14.05-12.33,18.4
	c-3.35,4.35-10.38,17.72-14.31,26.33c-3.82,8.38-5.6,19.64-4.79,27.09c0.91,8.37,4.69,20.04,4.69,20.04s8.86-5.19,12.02-7
	c3.15-1.81,7.45-5.59,14.6-7.45c0,0,23.33-17.1,26.79-19.23s8.99-13.39,15.83-16.1c6.84-2.7,15.74-4.61,25.28-4.77
	s22.26,0.32,24.17,3.02c0,0,11.2,0.72,11.88-1.33c1.44-4.39,2.2-6.01,2.19-5.84"/>
<path id="VenaCarva_18_" class="st0" d="M310.04,91.6c0.08-3.49,1.77-6.19,5.31-6.19s7.83,2.18,10.19,3.69
	c2.36,1.5,11.98,8.42,15.49,13.83c2.38,3.67,7.27,13.76,2.39,17.3c-4.89,3.54-13.75,1.87-16.87,0.49
	c-6.45-2.85-11.21-11.75-12.61-14.47C312.47,103.4,309.95,95.28,310.04,91.6z"/>
<path id="Veins_18_" class="st0" d="M283.53,217.22c0,0,14.83,1.48,19.21-0.17c4.39-1.65,9.34-5.11,17.57-7.27
	c7.12-1.86,9.26-4.23,12.51-7.04c3.59-3.1,7.23-12.36,3.08-14.13c-4.15-1.78-2.83-3.42-4.21-6.78c-1.38-3.36-5.92-26.94-35.13-28.23
	c-29.21-1.28-29.98,41.3-30.69,47.99c-0.91,8.48-0.24,19.12-4.46,27.68c-4.1,8.33-16.68,36.83-22.43,45.85
	c-9.84,15.45-29.6,7.41-40.43,8.82c-10.84,1.41-17.59,4.55-17.59,4.55s11.62-3.61,17.59-3.93c5.97-0.31,25,1.7,25,1.7l-6.45,4.91
	c0,0-9.57-0.28-15.72,2.86c-6.15,3.14-16.27,11.75-19.41,12.3c-3.14,0.55-6.42-4.24-13.4-3.42c-6.97,0.82-9.16,2.87-9.16,2.87
	s3.71-2.26,8.74-2.43c5.03-0.17,12.03,4.34,12.03,4.34s-4.27,8.12-4.86,11.46s-1.31,7.05-4.9,8.24c-3.58,1.19-9.32,2.39-14.58,1.67
	c-5.26-0.72-11.59-0.6-11.59-0.6s8.95,0.89,11.56,1.25c2.61,0.36,10.47,0.41,14.56-1.69c4.09-2.09,5.16-3.37,6.23-8.79
	c1.07-5.41,5.67-11.9,5.67-11.9s16.14-8.22,19.41-10.01c3.27-1.79,14.3-2.76,14.3-2.76s-8.5,17.94-10.55,22.49
	s-18.81,29.76-29.14,33.27c0,0,14.75-8.18,20.06-17.56c5.31-9.38,10.52-15.38,10.52-15.38s-3.57,26.66-7.08,38.36
	s-13.06,28.09-16.15,40.75c-1.77,7.26-9.21,3.86-13.42,6.75c-3.41,2.34-3.54,7.17-8.22,8.34c-4.68,1.17-5.24,2.5-5.24,2.5
	s5.8-0.48,8.4-1.35c2.6-0.87,6.14-7.83,8.15-7.94s6.9,1.2,9.41,4.17c2.51,2.97,19.28,22.84,21.79,38.58c0,0-5.05-19.24-9.41-27.51
	c-4.35-8.27-10.32-12.07-10.1-16.75c0.22-4.68,8.78-16.47,10.52-21.26c1.74-4.79,8.49-22.64,10.34-28.95s3-32.26,3.15-38.16
	c0.15-5.9,8.27-20.46,10.01-21.66c1.74-1.2,13.53-9.07,17.4-12.52c3.87-3.45,10.24-14.93,12.54-19.94
	c2.3-5.01,12.66-29.9,22.47-28.67c9.81,1.23,3.68,13.98,5.39,20.84c1.72,6.87,7.6,13.64,7.1,21.44s-3.67,21.41-3.67,28.21
	s4,23.07,5.51,28.1c1.51,5.03,0.75,6.61,0,14.16c-0.75,7.55-2.16,10.7-2.16,10.7s7.49-14.46,7.24-20.75c0,0,12.03,5.9,13.79,15.97
	c0,0-1.93-12.69-9.14-17.92s-10.59-23.59-10.7-27.44c-0.11-3.86,2.21-23.56,7.13-23.13c4.93,0.43,10.68,11.13,13.57,15.74
	c2.89,4.61,13.57,19.52,14.43,23.59c0.86,4.07,1.81,10.49,0.2,14.56c-1.61,4.07-2.65,11.8-11.87,19.85
	c-6.34,5.53-12.37,15.26-12.37,15.26s15.46-15.04,19.85-19.65c4.39-4.61,5.71-7.96,7.39-13.5c1.63-5.34,1.2-11.69,1.2-11.69
	s7.81,13.24,7.88,21.84c0.05,6.54-1.65,14.23-11.5,25.27c-9.86,11.03-17.36,35.23-17.36,35.23s4.73-10.11,9.44-14.29
	c0,0,1.77,17.69,2.48,24.41c0,0,2.05-16.84,2.26-23.7c0.21-6.86,2.42-12.99,4.46-15.56s12.66-16.15,13.62-22.26
	c0.96-6.11,1.47-12.5-0.89-18.82s-2.11-11.84-9.06-19.19c-7.81-8.27-9.76-18.34-9.76-18.34s16.87-2.45,21.36-1.04
	c2.26,0.71,6.37,3.68,6.37,3.68s-4.47-6.75-6.93-7.07s-9.3-0.42-13.79-0.85c-4.5-0.43-10.03-0.32-12.17-3.75
	s-14.49-22.98-17.39-26.09c-2.89-3.11-6.64-5.03-7.18-15c-0.54-9.96-3.06-15.99-2.79-21.1
	C283.64,225.13,281.38,217.17,283.53,217.22z"/>
<path id="pulmonaryTube2_18_" class="st0" d="M384.63,139c-5.49,0.39-9.21,1.26-10.55,9.59c-1.34,8.33,2.81,11.18,6.67,11.18
	c3.87,0,10.93-4.49,10.64-11.63S387.66,138.78,384.63,139z"/>
<path id="pulmonaryTube1_18_" class="st0" d="M403.56,148.59c-5.65,0-12.17,0.58-12.17,10.1c0,9.52,6.92,8.29,10.19,8.29
	s8.02-3.93,8.02-9.43C409.6,152.05,407.86,148.59,403.56,148.59z"/>
<path id="pulmonary_18_" class="st0" d="M291.05,153.59c11.8-2.71,52.37-33.36,52.37-33.36l-8.3,6.12c0,0,15.25,3.75,20.07,4.84
	c4.81,1.09,19.87,4.06,23.7,5.48c3.83,1.42,28.63,7.64,30.28,13.1s1.65,9.89-1.28,13.05c-4.94,5.33-4.39,4.81-9.92,8.29
	c-4.4,2.77-10.84,5-14.45,13.64c-3.61,8.64-7.78,28.76-15.3,32.91c0,0,4.42,3.19,2.97,18.49c-1.65,17.37-3.59,24.45-3.59,24.45
	s-9.82-10.91-14.35-10.36c-4.53,0.55-5.91,4.12-14.42,2.24c-8.51-1.88-9.08-3.99-12.46-5.53c-3.18-1.45-4.04-4.01-8.13-5.67
	c-4.09-1.66-7.16-9.23-9.59-11.44c-2.43-2.21-10.24-12.09-10.24-12.09"/>
<path id="outside_18_" class="st0" d="M367.6,260.6c0,0,2.4,19.18,2.14,29.66c-0.26,10.47,0.35,20.64-1.13,27.52
	c-3.1,14.47-16.14,36.99-21.25,45.42c-5.11,8.43-8.48,15.89-13.85,25.6c-5.37,9.71-12.97,24.88-15.78,30.75
	c-2.81,5.88-7.8,18.16-16.75,27.21s-32.27,44.61-59.75,45.49c-20.08,0.64-39.08-23.55-47-29.68c-7.92-6.13-26.41-27.37-32.83-34.62
	c-9.77-11.03-21.41-34.44-25.23-42.58c-3.17-6.74-16.36-29.34-22.2-49.27c-3.32-11.32-3.06-40.05-3.21-52.05
	c-0.28-22.57,3.73-32.71,4.65-46.2c0.8-11.62,4.43-10.02,5.71-13.6c1.28-3.58,2.93-7.81,3.22-10.96c0.38-4.08,3.01-6.72,4.4-8.7
	c1.4-1.98,2.51-6.23,4.45-9.42c1.51-2.49,5.22-5.64,6.73-8.55c1.51-2.91,3.24-8.98,4.63-11.87c1.81-3.75,3.71-7.5,4.94-9.15
	c1.04-1.4,2.46-5.15,5.12-7.69c2.6-2.48,5.82-6.59,8.14-7.87c2.33-1.28,4.9-3.09,6.95-3.93c2.12-0.87,3.44-1.83,5.94-2.85"/>
</svg>
