<?xml version="1.0" encoding="utf-8"?>
<!-- Generator: Adobe Illustrator 25.1.0, SVG Export Plug-In . SVG Version: 6.00 Build 0)  -->
<svg version="1.1" id="Layer_2" xmlns="http://www.w3.org/2000/svg" xmlns:xlink="http://www.w3.org/1999/xlink" x="0px" y="0px"
	 viewBox="0 0 500 500" style="enable-background:new 0 0 500 500;" xml:space="preserve">
<style type="text/css">
	.st0{fill:none;stroke:#000000;stroke-miterlimit:10;}
</style>
<path id="Aorta_15_" class="st0" d="M326.66,52.12c0,0-2.39,0.11-5.9,5.88s-7.53,15.24-8.62,17.41c-1.09,2.18-4.19,5.69-4.44,7.95
	s1.91,0.47,3.08-1.29s6.41-11.42,8.5-15.19c2.09-3.77,7.38-11.53,7.38-13.79s-0.96-3.59-1.88-4.18c-0.92-0.59-7.13-1.96-9.22-3.97
	s-4.31-7.9-4.15-12.92s0.08-21.93,0.08-21.93s-1.04-8.35-11.92-7.85s-13.17,4.67-13.17,4.67l-2.66,22.24c0,0-1.63,2.07-4.23,2.15
	c-2.6,0.08-7.02-1.28-7.02-1.28l-1.56-24.08c0,0-4.27-1.02-9.04,0.4c-4.77,1.42-11.19,3.36-11.19,3.36s-0.37,17.32-1.12,18.49
	c-0.75,1.17-10.07,0.9-11.58,0.4c-1.51-0.5-4.75-13.08-4.75-13.08s-3.74-1.85-9.01,0.16c-5.27,2.01-9.41,6-9.41,6
	s-1.04,10.8-3.13,13.22c-2.09,2.43-8.96,8.59-15.07,14.36c-6.11,5.78-13.57,17.4-16.92,21.76c-3.35,4.35-10.15,15.98-14.08,24.6
	c-3.82,8.38-1.84,20.85-1.03,28.3c0.91,8.37,8,17.96,8,17.96s11.55-3.73,14.71-5.55c3.15-1.81,7.45-5.59,14.6-7.45
	c0,0,23.33-17.1,26.79-19.23c3.47-2.13,8.99-13.39,15.83-16.1c6.84-2.7,15.74-4.61,25.28-4.77c9.54-0.16,22.26,0.32,24.17,3.02
	c0,0,11.2,0.72,11.88-1.33c1.44-4.39,2.2-6.01,2.19-5.84"/>
<path id="VenaCarva_15_" class="st0" d="M309.68,91.65c0.08-3.49,1.77-6.19,5.31-6.19s7.83,2.18,10.19,3.69
	c2.36,1.5,11.98,8.42,15.49,13.83c2.38,3.67,7.27,13.76,2.39,17.3c-4.89,3.54-13.75,1.87-16.87,0.49
	c-6.45-2.85-11.21-11.75-12.61-14.47C312.11,103.46,309.59,95.33,309.68,91.65z"/>
<path id="Veins_15_" class="st0" d="M286.96,228.26c0,0,9.29-1.8,13.67-3.44c4.39-1.65,10.21-3.07,18.44-5.22
	c7.12-1.86,11.53-1.31,14.78-4.11c3.59-3.1-1.56-10.22-1.56-10.22s7.49-3.98,6.11-7.33c-1.38-3.36-13-42.97-42.21-44.25
	c-29.21-1.28-29.98,41.3-30.69,47.99c-0.91,8.48-0.24,19.12-4.46,27.68c-4.1,8.33-15.62,37.6-22.43,45.85
	c-14.78,17.93-29.54,13.4-37.09,12.92c-10.91-0.69-20.93,0.45-20.93,0.45s11.08,0.71,16.99,1.57c6.19,0.9,21.55,0.9,21.55,0.9
	l-5.11,4c0,0-6.93-3.39-13.08-0.25c-6.15,3.14-18.49,9.91-21.63,10.46c-3.14,0.55-6.22-2.72-13.19-1.9s-9.16,2.87-9.16,2.87
	s3.71-2.26,8.74-2.43c5.03-0.17,12.03,4.34,12.03,4.34s-4.27,8.12-4.86,11.46s-1.31,7.05-4.9,8.24c-3.58,1.19-9.32,2.39-14.58,1.67
	c-5.26-0.72-11.59-0.6-11.59-0.6s8.95,0.89,11.56,1.25s10.47,0.41,14.56-1.69c4.09-2.09,5.16-3.37,6.23-8.79s5.67-11.9,5.67-11.9
	s18.23-8.57,21.5-10.36c3.27-1.79,11.66,0.36,11.66,0.36s-5.86,14.82-7.91,19.38s-18.81,29.76-29.14,33.27
	c0,0,14.75-8.18,20.06-17.56c5.31-9.38,10.52-15.38,10.52-15.38s-5.05,26.22-8.12,38.05c-3.06,11.77-6.89,18.34-11.07,30.88
	c-4.13,12.36-10.41,11.19-14.51,11.78c-4.09,0.58-2.42,8.78-7.1,9.95c-4.68,1.17-3.97,1.3-3.97,1.3s4.35,0.23,6.96-0.65
	c2.6-0.87,3.48-8.55,5.48-8.66c2-0.11,10.15,2.57,13.62,4.32c8.57,4.31,14.46,19.94,16.97,35.69c0,0-3.38-21.99-7.73-30.26
	c-4.35-8.27-9.13-8.47-8.92-13.15c0.22-4.68,2.77-6.28,4.51-11.07c1.74-4.79,8.49-22.64,10.34-28.95
	c1.85-6.31,7.91-35.67,8.05-41.57c0.15-5.9,3.26-17.48,5-18.67c1.74-1.2,16.17-12.19,20.05-15.64c3.87-3.45,10.24-14.93,12.54-19.94
	c2.3-5.01,12.66-29.9,22.47-28.67c9.81,1.23-1.56,16.88,0.15,23.75s3.77,11.94,3.27,19.74c-0.5,7.8-1.79,20.63-1.79,27.42
	s4,23.07,5.51,28.1c1.51,5.03,0.75,6.61,0,14.16c-0.75,7.55-2.16,10.7-2.16,10.7s7.49-14.46,7.24-20.75c0,0,12.03,5.9,13.79,15.97
	c0,0-1.93-12.69-9.14-17.92s-10.59-23.59-10.7-27.44s7.63-16.64,7.63-16.64s8.21,11.84,11.11,16.45
	c2.89,4.61,13.44,12.84,14.29,16.91c0.86,4.07,0.61,8.32-0.99,12.4c-1.61,4.07-0.51,6.49-8.8,15.49
	c-5.81,6.31-12.75,16.39-12.75,16.39s6.42-7.57,10.81-12.18c4.39-4.61,12.55-11.69,13.55-17.42c1.08-6.23,2.39-12.18,2.39-12.18
	s5.51,13.82,5.58,22.42c0.05,6.54-5.2,14.92-13.77,26.98c-3.86,5.43-8.65,24.02-8.65,24.02s2.69-3.22,7.4-7.4
	c0,0,0.32,7.74,1.02,14.46c0,0,2.75-12.95,2.96-19.81c0.21-6.86,0.58-10.06,2.62-12.63c2.04-2.57,9.74-12.22,10.7-18.33
	c0.96-6.11,0.99-16.33-1.37-22.65c-2.36-6.32-6.93-17.23-12.7-25.54c-2.23-3.21,7.27-5.54,7.27-5.54s15.63-1.5,20.12-0.1
	c2.26,0.71,7.61,2.73,7.61,2.73s-5.15-5.37-7.61-5.69s-8.93-0.76-13.43-1.19c-4.5-0.43-19.57,5.11-21.71,1.68
	c-5.03-8.05-13.1-19.18-18.13-27.69c-2.16-3.65-0.94-10.91-1.48-20.88c-0.54-9.96-0.56-9.08-0.28-14.19
	C280.88,231.07,284.81,228.2,286.96,228.26z"/>
<path id="pulmonaryTube2_15_" class="st0" d="M384.27,139.05c-5.49,0.39-9.21,1.26-10.55,9.59c-1.34,8.33,2.81,11.18,6.67,11.18
	s10.93-4.49,10.64-11.63C390.74,141.05,387.3,138.83,384.27,139.05z"/>
<path id="pulmonaryTube1_15_" class="st0" d="M403.2,148.64c-5.65,0-12.17,0.58-12.17,10.1c0,9.52,4.48,7.91,7.75,7.91
	c3.27,0,9.5-5.76,9.5-11.26C408.29,149.89,407.5,148.64,403.2,148.64z"/>
<path id="pulmonary_15_" class="st0" d="M290.69,153.64c11.8-2.71,52.37-33.36,52.37-33.36l-5.67,4.21c0,0,13.04,1.61,17.85,2.7
	c4.81,1.09,19.83,7.37,23.29,9.54c3.5,2.19,26.59,8.36,28.61,12.96c2.3,5.22,0.88,9.65-2.04,12.81c-4.94,5.33-4.39,4.81-9.92,8.29
	c-4.4,2.77-14,5.53-21.71,13.85c-6.37,6.87-16.68,24.88-23.16,31.32c0,0,1.45,3.99,0,19.28c-1.65,17.37-3.37,25.41-3.37,25.41
	s-1.83-4-3.05-3.98c-4.56,0.06-2.47-4.29-5.42-4.14c-4.47,0.22-5.05,3.81-11.15,3.98c-3.49,0.09-7.45-6.5-11.54-8.16
	c-4.09-1.66-9.61-9.89-12.05-12.1c-2.43-2.21-10.21-9.42-10.21-9.42"/>
<path id="outside_15_" class="st0" d="M346.93,260.65c0,0,2.81,16.19,2.55,26.66c-0.26,10.47,1.47,18.06,0,24.94
	c-3.1,14.47-10.46,27.41-15.57,35.84c-5.11,8.43-9.36,19.94-14.72,29.65c-5.37,9.71-10.69,26.75-11.36,33.23
	c-0.63,6.1-6.62,24.81-15.56,33.86c-8.94,9.05-20.47,38.66-47.95,39.54c-20.08,0.64-37.93-19.31-45.85-25.45
	c-7.92-6.13-21.97-25.98-28.39-33.23c-12.01-13.56-19.2-29.79-23.97-39.96c-3.17-6.74-10.35-28.25-16.19-48.18
	c-3.32-11.32-2.32-26.03-2.47-38.04c-0.28-22.57-1.21-12.22-0.28-25.7c0.8-11.62,0.62-15.2,1.9-18.78
	c1.28-3.58,20.62-64.46,21.53-84.04c0.91-19.58,22.01-29.12,22.01-29.12s-21.34,10.64-21.67,25.34
	c-0.34,14.7-18.77,78.34-19.06,75.69c-0.35-3.26-7.62-11.6-9.48-25.15s3.23-46.82,4.46-48.47c1.04-1.4,9.71-15.38,12.37-17.92
	c2.6-2.48,5.91-6.59,8.07-8.13c2.23-1.59,8.91-2.39,11.35-1.98c2.26,0.38,11.47,1.65,13.97,0.63"/>
</svg>
