<?xml version="1.0" encoding="utf-8"?>
<!-- Generator: Adobe Illustrator 25.1.0, SVG Export Plug-In . SVG Version: 6.00 Build 0)  -->
<svg version="1.1" id="Layer_2" xmlns="http://www.w3.org/2000/svg" xmlns:xlink="http://www.w3.org/1999/xlink" x="0px" y="0px"
	 viewBox="0 0 500 500" style="enable-background:new 0 0 500 500;" xml:space="preserve">
<style type="text/css">
	.st0{fill:none;stroke:#000000;stroke-miterlimit:10;}
</style>
<path id="Aorta_24_" class="st0" d="M326.66,52.12c0,0-2.39,0.11-5.9,5.88s-7.53,15.24-8.62,17.41c-1.09,2.18-4.19,5.69-4.44,7.95
	s1.91,0.47,3.08-1.29s6.41-11.42,8.5-15.19c2.09-3.77,7.38-11.53,7.38-13.79s-0.64-5-1.56-5.59c-0.92-0.59-7.13-1.96-9.22-3.97
	c-2.09-2.01-2.73-6.88-2.56-11.9s0.14-21.75,0.14-21.75s-3.01-8.14-13.9-7.64s-13.17,4.67-13.17,4.67l-2.66,22.24
	c0,0-1.63,2.07-4.23,2.15c-2.6,0.08-7.02-1.28-7.02-1.28l-1.56-24.08c0,0-4.27-1.02-9.04,0.4c-4.77,1.42-11.19,3.36-11.19,3.36
	s-0.37,17.32-1.12,18.49c-0.75,1.17-10.07,0.9-11.58,0.4c-1.51-0.5-4.75-13.08-4.75-13.08s-3.67,0.46-8.95,2.47s-8.4,5.33-8.4,5.33
	s0.96,9.05-1.13,11.47c-2.09,2.43-12.03,8.69-18.14,14.47c-6.11,5.78-13.58,18.19-16.93,22.54c-3.35,4.35-7.87,11.91-11.8,20.53
	c-3.82,8.38-4.42,20.13-3.61,27.58c0.91,8.37,8.07,19.66,8.07,19.66s11.79-1.42,14.94-3.23c3.15-1.81,7.45-5.59,14.6-7.45
	c0,0,19.27-19.57,22.74-21.7c3.47-2.13,13.04-10.93,19.88-13.63c6.84-2.7,15.74-4.61,25.28-4.77c9.54-0.16,22.26,0.32,24.17,3.02
	c0,0,11.2,0.72,11.88-1.33c1.44-4.39,2.2-8.1,2.19-7.94"/>
<path id="VenaCarva_24_" class="st0" d="M309.68,89.56c0.08-3.49-0.92-7.24,2.62-7.24s7.83,2.18,10.19,3.69
	c2.36,1.5,11.98,8.42,15.49,13.83c2.38,3.67,7.27,13.76,2.39,17.3s-13.75,1.87-16.87,0.49c-6.45-2.85-11.21-11.75-12.61-14.47
	C309.41,100.32,309.59,93.24,309.68,89.56z"/>
<path id="Veins_24_" class="st0" d="M284.32,224.91c0,0,11.47-2.35,15.85-4c4.39-1.65,10.71-1.61,18.94-3.76
	c7.12-1.86,15.82-4.09,19.07-6.9c3.59-3.1,3.38-7.84,3.38-7.84s3.35-6.75,1.26-9.72c-6.27-8.91-33.75-38.02-46.64-39.02
	c-29.15-2.26-29.98,41.3-30.69,47.99c-0.91,8.48-0.24,19.12-4.46,27.68c-4.1,8.33-25.95,35.62-31.02,45.04
	c-8.74,16.27-20.95,13.56-28.51,13.73c-10.58,0.24-20.93,0.45-20.93,0.45s11.08,0.71,16.99,1.57c6.19,0.9,20.37,0,20.37,0
	l-3.73,6.41c0,0-6.93-3.39-13.08-0.25c-6.15,3.14-18.49,9.91-21.63,10.46c-3.14,0.55-6.42-4.24-13.4-3.42s-9.16,2.87-9.16,2.87
	s3.71-2.26,8.74-2.43c5.03-0.17,12.03,4.34,12.03,4.34s-4.27,8.12-4.86,11.46s-1.31,7.05-4.9,8.24c-3.58,1.19-9.32,2.39-14.58,1.67
	c-5.26-0.72-11.59-0.6-11.59-0.6s8.95,0.89,11.56,1.25s10.47,0.41,14.56-1.69c4.09-2.09,5.16-3.37,6.23-8.79s5.67-11.9,5.67-11.9
	s18.23-8.57,21.5-10.36c3.27-1.79,11.66,0.36,11.66,0.36s-5.86,14.82-7.91,19.38s-18.81,29.76-29.14,33.27
	c0,0,14.75-8.18,20.06-17.56c5.31-9.38,10.52-15.38,10.52-15.38s-7.52,26.13-10.59,37.95c-3.06,11.77-9.07,15.83-13.26,28.37
	c-4.13,12.36-2.33,20.36-6.22,21.74c-3.75,1.33-7.79,2.13-12.85,2.47c-4.81,0.32-9.3,13.29-9.3,13.29s8.22-8.29,10.91-8.81
	c4.38-0.84,3.69-1.4,6.3-0.4c1.88,0.71,5.38-1.23,7.84,1.78c3.64,4.45,18.26,23.37,20.77,39.12c0,0-3.97-24.06-8.32-32.33
	c-4.35-8.27-4.42-9.06-4.2-13.74s-0.04-16.39,1.7-21.18c1.74-4.79,9.46-22.84,11.31-29.15s7.91-35.67,8.05-41.57
	c0.15-5.9,5.63-17.35,7.37-18.54c1.74-1.2,8.37-10.05,12.25-13.5c3.87-3.45,13.52-18.45,16.22-23.26
	c3.2-5.71,16.77-28.71,26.58-27.49c9.81,1.23,3.18,15.49,4.9,22.35c1.72,6.87,6.05,14.57,5.55,22.37s-1.03,18.23-1.03,25.02
	s6.56,26.56,8.07,31.6c1.51,5.03,2.69,4.28,1.94,11.83c-0.75,7.55-1.47,10.6-1.47,10.6s4.86-12.03,4.61-18.32
	c0,0,12.03,5.9,13.79,15.97c0,0-3.22-13.79-10.44-19.02s-10.06-25.26-10.17-29.12c-0.11-3.86,0.88-26.5,0.88-26.5
	s18.2,22.38,21.83,26.42c3.59,4,8.08,11.65,12.61,13.3c2.99,1.09,8.56,6.62,7.22,15.15c-0.68,4.32,1.22,12.64-7.07,21.65
	c-5.81,6.31-17.39,20.99-17.39,20.99s8.67-6.78,13.06-11.39c4.39-4.61,14.37-15.92,15.37-21.65c1.08-6.23,1.73-10.46,1.73-10.46
	s3.65,7.8,4.91,16.31c0.98,6.63-2.66,20.22-11.47,33.62c-3.66,5.57-18.9,33.55-18.9,33.55s3.58-5.64,8.3-9.81
	c0,0-0.78,7.64-0.07,14.36c0,0,5.7-18.54,7.43-24.75c1.84-6.61,6.3-11.3,7.94-14.14c1.85-3.21,9.64-18.07,10.61-24.17
	c0.96-6.11-2.28-24.98-6.13-30.52c-4.27-6.14-17.11-22.2-15.79-22.44c0,0,0.43-0.79,4.1-1.81c3.67-1.02,7.02-1.35,11.41-1.99
	c2.35-0.34,11.54,0.05,11.54,0.05s-6.99-3-9.45-3.32s-6.78,0.05-11.25,0.73c-6.19,0.93-12.76-1.82-15.52-4.77
	c-8.76-9.32-20.73-21.43-25.76-29.94c-2.16-3.65-3.72-4.62-4.26-14.58c-0.54-9.96-2.03-9.93-1.75-15.05
	C281.17,229.6,282.18,224.86,284.32,224.91z"/>
<path id="pulmonaryTube2_24_" class="st0" d="M386.44,137.25c-5.49,0.39-9.19,3.25-10.53,11.58c-1.34,8.33,2.81,11.18,6.67,11.18
	s10.94-4.49,10.64-11.63S389.47,137.03,386.44,137.25z"/>
<path id="pulmonaryTube1_24_" class="st0" d="M405.4,148.82c-5.65,0-12.17,0.58-12.17,10.1c0,9.52,4.48,7.91,7.75,7.91
	s9.5-5.76,9.5-11.26C410.48,150.07,409.69,148.82,405.4,148.82z"/>
<path id="pulmonary_24_" class="st0" d="M290.69,153.64c11.8-2.71,49.67-36.5,49.67-36.5l-6.2,5.4c0,0,17.62,2.96,22.43,4.05
	c4.81,1.09,21.59,5.25,25.05,7.42c3.5,2.19,25.66,11.27,27.68,15.86c2.3,5.22,0.88,9.65-2.04,12.81c-4.94,5.33-4.39,4.81-9.92,8.29
	c-4.4,2.77-8.43,2.47-16.14,10.79c-6.37,6.87-11.1,26.98-17.58,33.42c0,0,5.89,6.72,4.44,22.02c-1.65,17.37-4.77,20.5-4.77,20.5
	s-4.01-3.83-6.76-3.82c-2.74,0.01-13.18-1.99-15.96-2.94c-4.16-1.42-4.37-0.05-9.26-3.53c-2.84-2.02-7.51-6.47-11.6-8.12
	c-4.09-1.66-10.54-4.67-12.97-6.88c-2.43-2.21-11.57-10.35-11.57-10.35"/>
<path id="outside_24_" class="st0" d="M363.33,257.71c0,0,2.18,19.83,1.92,30.3c-0.26,10.47,0.78,24.39-0.7,31.27
	c-3.1,14.47-11.86,28.17-15.93,37.14c-4.88,10.76-8.48,20.66-13.84,30.37c-5.37,9.71-11.47,26.54-13.94,32.56
	c-2.36,5.74-9.56,19.52-17.73,28.88c-8.36,9.59-33.75,46.49-61.24,46.51c-29.3,0.02-44.81-21.6-51.58-28.98
	c-7.2-7.83-24.56-25.26-30.67-32.76c-11.65-14.29-21.91-31.86-26.69-42.02c-3.17-6.74-12.95-26.19-21.11-45.31
	c-4.63-10.85-5.99-32.87-6.14-44.88c-0.28-22.57,1.21-24.41,2.14-37.9c0.8-11.62,8.76-35.2,9.07-41.09
	c2.14-23.97,17.19-41.84,24.93-54.69c9.8-16.28,30.12-27.22,29.88-27.31c0,0-23.64,12.01-28.84,25.66
	c-3.08,8.08-19.36,17.28-25.97,56.35c0,0-1.05-0.61-1.05-14.29c0-8.32,1.57-19.73,10.9-34.15c0.95-1.47,8.08-12.58,15.08-18.24
	c2.79-2.26,8.15-5.79,10.63-6.73c3.59-1.36,9.87-5.48,12.85-6.61c2.12-0.81,4.6-1.61,7.1-2.2"/>
</svg>
