<?xml version="1.0" encoding="utf-8"?>
<!-- Generator: Adobe Illustrator 25.1.0, SVG Export Plug-In . SVG Version: 6.00 Build 0)  -->
<svg version="1.1" id="Layer_2" xmlns="http://www.w3.org/2000/svg" xmlns:xlink="http://www.w3.org/1999/xlink" x="0px" y="0px"
	 viewBox="0 0 500 500" style="enable-background:new 0 0 500 500;" xml:space="preserve">
<style type="text/css">
	.st0{fill:none;stroke:#000000;stroke-miterlimit:10;}
</style>
<path id="Aorta_22_" class="st0" d="M326.66,52.12c0,0-2.39,0.11-5.9,5.88s-7.53,15.24-8.62,17.41c-1.09,2.18-4.19,5.69-4.44,7.95
	s1.91,0.47,3.08-1.29s6.41-11.42,8.5-15.19c2.09-3.77,7.38-11.53,7.38-13.79s-0.96-3.59-1.88-4.18c-0.92-0.59-7.13-1.96-9.22-3.97
	s-4.31-7.9-4.15-12.92s0.08-21.93,0.08-21.93s-1.04-8.35-11.92-7.85s-13.17,4.67-13.17,4.67l-2.66,22.24c0,0-1.63,2.07-4.23,2.15
	c-2.6,0.08-7.02-1.28-7.02-1.28l-1.56-24.08c0,0-4.27-1.02-9.04,0.4c-4.77,1.42-11.19,3.36-11.19,3.36s-0.37,17.32-1.12,18.49
	c-0.75,1.17-10.07,0.9-11.58,0.4c-1.51-0.5-4.75-13.08-4.75-13.08s-3.74-1.85-9.01,0.16c-5.27,2.01-9.41,6-9.41,6
	s0.59,9.89-1.5,12.32c-2.09,2.43-10.59,9.49-16.7,15.27c-6.11,5.78-14.86,16.35-18.21,20.7c-3.35,4.35-9.45,15.03-13.37,23.65
	c-3.82,8.38-1.57,18.84-0.76,26.29c0.91,8.37,9.01,21.74,9.01,21.74s10.85-3.51,14.01-5.32c3.15-1.81,7.45-5.59,14.6-7.45
	c0,0,19.27-19.57,22.74-21.7c3.47-2.13,13.04-10.93,19.88-13.63c6.84-2.7,15.74-4.61,25.28-4.77c9.54-0.16,22.26,0.32,24.17,3.02
	c0,0,11.2,0.72,11.88-1.33c1.44-4.39,2.2-8.1,2.19-7.94"/>
<path id="VenaCarva_22_" class="st0" d="M309.68,89.56c0.08-3.49-0.92-7.24,2.62-7.24s7.83,2.18,10.19,3.69
	c2.36,1.5,11.98,8.42,15.49,13.83c2.38,3.67,7.27,13.76,2.39,17.3s-13.75,1.87-16.87,0.49c-6.45-2.85-11.21-11.75-12.61-14.47
	C309.41,100.32,309.59,93.24,309.68,89.56z"/>
<path id="Veins_22_" class="st0" d="M286.35,225.88c0,0,9.9,0.58,14.27-1.07c4.39-1.65,4.85-5.4,15.75-7.15
	c7.26-1.17,18.91,1.1,23.93-4.9c4.25-5.08-5.37-9.19-5.37-9.19s11.4-4.13,7.59-9.47c-3.23-4.53-17.12-39.14-46.34-40.43
	c-29.21-1.28-29.98,41.3-30.69,47.99c-0.91,8.48-0.24,19.12-4.46,27.68c-4.1,8.33-25.95,35.62-31.02,45.04
	c-8.74,16.27-20.95,13.56-28.51,13.73c-10.58,0.24-20.93,0.45-20.93,0.45s11.08,0.71,16.99,1.57c6.19,0.9,20.37,0,20.37,0
	l-3.73,6.41c0,0-6.93-3.39-13.08-0.25c-6.15,3.14-18.8,7.17-21.94,7.72c-3.14,0.55-6.12-1.5-13.09-0.68s-9.16,2.87-9.16,2.87
	s3.71-2.26,8.74-2.43c5.03-0.17,10.41,3.97,10.41,3.97s-2.64,8.49-3.23,11.83s-1.31,7.05-4.9,8.24c-3.58,1.19-9.32,2.39-14.58,1.67
	c-5.26-0.72-11.59-0.6-11.59-0.6s8.95,0.89,11.56,1.25s10.47,0.41,14.56-1.69c4.09-2.09,5.16-3.37,6.23-8.79s5.67-11.9,5.67-11.9
	s18.23-8.57,21.5-10.36c3.27-1.79,11.66,0.36,11.66,0.36s-5.86,14.82-7.91,19.38s-18.81,29.76-29.14,33.27
	c0,0,14.75-8.18,20.06-17.56c5.31-9.38,10.52-15.38,10.52-15.38s-5.05,26.22-8.12,38.05c-3.06,11.77-6.89,18.34-11.07,30.88
	c-4.13,12.36-9.8,10.96-13.42,12.97c-2.17,1.21-4.82,6.16-8.53,9.24c-2.27,1.88-2.97,4.93-2.97,4.93s4.4-2.97,6.8-4.3
	c2.26-1.26,4.19-4.51,6.19-4.62c2-0.11,7.73,1.58,10.33,4.46c4.31,4.78,14.32,17.76,16.83,33.51c0,0-3.32-22.65-7.67-30.92
	c-4.35-8.27-4.26-8.03-4.04-12.71c0.22-4.68,0.23-8.52,1.97-13.31c1.74-4.79,5.95-22.75,7.8-29.07s7.91-35.67,8.05-41.57
	c0.15-5.9,5.63-17.35,7.37-18.54c1.74-1.2,8.37-10.05,12.25-13.5c3.87-3.45,13.52-18.45,16.22-23.26
	c3.2-5.71,16.81-28.95,26.58-27.49c7.7,1.15,2.14,13.73,3.71,23.83c1.09,6.99,2.54,20.02,5.08,28.25c-0.5,7.8-3.39,11.35-3.39,18.14
	s1.76,21.94,3.27,26.97c1.51,5.03,2.45,4.38,3.27,11.01c0.92,7.53-0.24,15-0.24,15s4.68-11.39,4.43-17.68c0,0,8.13,3.5,9.89,13.57
	c0,0-1.93-12.69-9.14-17.92s-6.64-23.7-6.75-27.56s3.69-16.52,3.69-16.52s13.23,12.1,16.87,16.15c3.59,4,12.44,13.17,15.37,17
	c2.53,3.31,3,6.1,2.06,12.71c-0.62,4.33-1.07,11.26-9.36,20.26c-5.81,6.31-12.71,21.12-12.71,21.12s7.28-9.47,11.68-14.08
	s13.34-15.05,14.34-20.78c1.08-6.23,1.43-9.83,1.43-9.83s3.49,6.1,3.86,14.69c0.28,6.58-5.35,20.03-13.8,33.46
	c-3.55,5.64-10.29,27.78-10.29,27.78s2.12-3.78,6.84-7.96c0,0-1.12,9.4-0.41,16.12c0,0,3.37-12.89,3.58-19.75
	c0.21-6.86,4.3-14.32,5.94-17.16c1.85-3.21,10.35-21.21,11.31-27.32c0.96-6.11-0.81-15.41-3.23-21.71
	c-2.48-6.46-14.23-24.14-14.23-24.14s0.73-0.96,4.4-1.98c3.67-1.02,7.12-1.43,11.51-2.08c2.35-0.34,9.75,0.71,9.75,0.71
	s-3.88-3.4-6.35-3.73s-8.55-0.78-13.02-0.11c-6.19,0.93-11.54,1.62-13.68-1.81c-5.03-8.05-19.33-17.5-24.36-26.02
	c-2.16-3.65-0.94-10.91-1.48-20.88c-0.54-9.96-0.56-9.08-0.28-14.19C280.88,231.07,284.21,225.83,286.35,225.88z"/>
<path id="pulmonaryTube2_22_" class="st0" d="M384.25,137.06c-5.49,0.39-9.19,3.25-10.53,11.58c-1.34,8.33,2.81,11.18,6.67,11.18
	s10.93-4.49,10.64-11.63C390.74,141.05,387.28,136.85,384.25,137.06z"/>
<path id="pulmonaryTube1_22_" class="st0" d="M403.2,148.64c-5.65,0-12.17,0.58-12.17,10.1c0,9.52,4.48,7.91,7.75,7.91
	c3.27,0,9.5-5.76,9.5-11.26C408.29,149.89,407.5,148.64,403.2,148.64z"/>
<path id="pulmonary_22_" class="st0" d="M290.69,153.64c11.8-2.71,49.67-36.5,49.67-36.5l-6.2,5.4c0,0,17.62,2.96,22.43,4.05
	c4.81,1.09,19.4,5.06,22.86,7.23c3.5,2.19,25.66,11.27,27.68,15.86c2.3,5.22,0.88,9.65-2.04,12.81c-4.94,5.33-4.39,4.81-9.92,8.29
	c-4.4,2.77-14,5.53-21.71,13.85c-6.37,6.87-17.5,23.69-23.98,30.12c0,0,3.32,5.4,1.88,20.7c-1.65,17.37-3.54,20.59-3.54,20.59
	l-6.3-0.03c0,0-0.01-0.74-2.95-0.6c-4.47,0.22-4.68-0.79-9.57-4.27c-2.84-2.02-5.2-3.24-9.29-4.9c-4.09-1.66-12.57-9.15-15-11.36
	s-11.24-9-11.24-9"/>
<path id="outside_22_" class="st0" d="M347.83,256.06c0,0,1.92,22.18,1.66,32.66c-0.26,10.47-0.19,21-1.66,27.87
	c-3.1,14.47-8.81,23.06-12.9,32.03c-3.95,8.66-6.8,20.66-12.17,30.37c-5.37,9.71-8.43,29.73-10.9,35.75
	c-2.36,5.74-10.19,21.46-17.22,30.9c-7.6,10.2-22.81,38.7-50.3,38.72c-29.3,0.02-40.53-15.72-47.3-23.1
	c-7.2-7.83-24.41-26.02-30.53-33.53c-11.65-14.29-18.69-29.89-23.47-40.05c-3.17-6.74-10.57-24.54-16.41-44.47
	c-3.32-11.32-2.67-33.16-2.82-45.17c-0.28-22.57-0.4-11.57,0.53-25.06c0.8-11.62,2.09-17.11,2.4-23
	c2.88-40.33,20.44-63.27,22.27-82.16c1.53-15.8,23.62-25.96,23.62-25.96s-21.59,11.49-23.62,25.96
	c-4.31,30.7-19.39,38.91-22.27,82.16c0,0-15.39-18.53-18.76-31.8c-3.24-12.78-0.48-36.66,8.84-51.09
	c0.95-1.47,6.13-12.88,14.55-16.89c3.24-1.54,12.56-7.41,15.04-8.35c3.59-1.36,10.61-0.84,13.08-0.98
	c2.26-0.13,11.33,1.34,13.83,0.75"/>
</svg>
