<?xml version="1.0" encoding="utf-8"?>
<!-- Generator: Adobe Illustrator 25.1.0, SVG Export Plug-In . SVG Version: 6.00 Build 0)  -->
<svg version="1.1" id="Layer_2" xmlns="http://www.w3.org/2000/svg" xmlns:xlink="http://www.w3.org/1999/xlink" x="0px" y="0px"
	 viewBox="0 0 500 500" style="enable-background:new 0 0 500 500;" xml:space="preserve">
<style type="text/css">
	.st0{fill:none;stroke:#000000;stroke-miterlimit:10;}
</style>
<path id="Aorta_21_" class="st0" d="M326.66,52.12c0,0-2.39,0.11-5.9,5.88s-7.53,15.24-8.62,17.41c-1.09,2.18-4.19,5.69-4.44,7.95
	s1.91,0.47,3.08-1.29s6.41-11.42,8.5-15.19c2.09-3.77,7.38-11.53,7.38-13.79s-0.96-3.59-1.88-4.18c-0.92-0.59-7.13-1.96-9.22-3.97
	s-4.31-7.9-4.15-12.92s0.08-21.93,0.08-21.93s-1.04-8.35-11.92-7.85s-13.17,4.67-13.17,4.67l-2.66,22.24c0,0-1.63,2.07-4.23,2.15
	c-2.6,0.08-7.02-1.28-7.02-1.28l-1.56-24.08c0,0-4.27-1.02-9.04,0.4c-4.77,1.42-11.19,3.36-11.19,3.36s-0.37,17.32-1.12,18.49
	c-0.75,1.17-10.07,0.9-11.58,0.4c-1.51-0.5-4.75-13.08-4.75-13.08s-3.74-1.85-9.01,0.16c-5.27,2.01-9.41,6-9.41,6
	s-1.04,10.8-3.13,13.22c-2.09,2.43-8.96,8.59-15.07,14.36c-6.11,5.78-13.57,17.4-16.92,21.76c-3.35,4.35-10.15,15.98-14.08,24.6
	c-3.82,8.38-1.84,20.85-1.03,28.3c0.91,8.37,8,17.96,8,17.96s11.55-3.73,14.71-5.55c3.15-1.81,7.45-5.59,14.6-7.45
	c0,0,19.27-19.57,22.74-21.7c3.47-2.13,13.04-10.93,19.88-13.63c6.84-2.7,15.74-4.61,25.28-4.77c9.54-0.16,22.26,0.32,24.17,3.02
	c0,0,11.2,0.72,11.88-1.33c1.44-4.39,2.2-8.1,2.19-7.94"/>
<path id="VenaCarva_21_" class="st0" d="M309.68,89.56c0.08-3.49-0.92-7.24,2.62-7.24s7.83,2.18,10.19,3.69
	c2.36,1.5,11.98,8.42,15.49,13.83c2.38,3.67,7.27,13.76,2.39,17.3s-13.75,1.87-16.87,0.49c-6.45-2.85-11.21-11.75-12.61-14.47
	C309.41,100.32,309.59,93.24,309.68,89.56z"/>
<path id="Veins_21_" class="st0" d="M286.96,228.26c0,0,9.29-1.8,13.67-3.44c4.39-1.65,10.21-3.07,18.44-5.22
	c7.12-1.86,11.53-1.31,14.78-4.11c3.59-3.1-1.56-10.22-1.56-10.22s7.49-3.98,6.11-7.33c-1.38-3.36-13-42.97-42.21-44.25
	c-29.21-1.28-29.98,41.3-30.69,47.99c-0.91,8.48-0.24,19.12-4.46,27.68c-4.1,8.33-25.95,35.62-31.02,45.04
	c-8.74,16.27-20.95,13.56-28.51,13.73c-10.58,0.24-20.93,0.45-20.93,0.45s11.08,0.71,16.99,1.57c6.19,0.9,20.37,0,20.37,0
	l-3.73,6.41c0,0-7.52-4.41-13.67-1.27s-17.66,7.5-20.81,8.04c-3.14,0.55-6.66-0.8-13.63,0.02s-9.16,2.87-9.16,2.87
	s3.71-2.26,8.74-2.43c5.03-0.17,12.03,4.34,12.03,4.34s-4.27,8.12-4.86,11.46s-1.31,7.05-4.9,8.24c-3.58,1.19-9.32,2.39-14.58,1.67
	c-5.26-0.72-11.59-0.6-11.59-0.6s8.95,0.89,11.56,1.25s10.47,0.41,14.56-1.69c4.09-2.09,5.16-3.37,6.23-8.79s5.67-11.9,5.67-11.9
	s18.23-8.57,21.5-10.36c3.27-1.79,11.66,0.36,11.66,0.36s-5.86,14.82-7.91,19.38s-18.81,29.76-29.14,33.27
	c0,0,14.75-8.18,20.06-17.56c5.31-9.38,10.52-15.38,10.52-15.38s-5.05,26.22-8.12,38.05c-3.06,11.77-6.89,18.34-11.07,30.88
	c-4.13,12.36-10.41,11.19-14.51,11.78c-4.09,0.58-2.42,8.78-7.1,9.95c-4.68,1.17-3.97,1.3-3.97,1.3s4.35,0.23,6.96-0.65
	c2.6-0.87,3.48-8.55,5.48-8.66c2-0.11,10.15,2.57,13.62,4.32c8.57,4.31,14.46,19.94,16.97,35.69c0,0-3.38-21.99-7.73-30.26
	c-4.35-8.27-7.25-8.22-7.03-12.9s0.69-6.04,2.43-10.83c1.74-4.79,7.11-22.57,8.96-28.88c1.85-6.31,7.11-36.35,7.25-42.26
	c0.15-5.9,5.63-17.35,7.37-18.54c1.74-1.2,8.37-10.05,12.25-13.5c3.87-3.45,13.52-18.45,16.22-23.26
	c3.2-5.71,16.77-28.71,26.58-27.49c9.81,1.23,0.41,15.81,2.13,22.68s1.8,13.01,1.29,20.81c-0.5,7.8-1.79,20.63-1.79,27.42
	s4,23.07,5.51,28.1c1.51,5.03,0.75,6.61,0,14.16c-0.75,7.55-2.16,10.7-2.16,10.7s7.49-14.46,7.24-20.75c0,0,12.03,5.9,13.79,15.97
	c0,0-1.93-12.69-9.14-17.92s-10.59-23.59-10.7-27.44s7.63-16.64,7.63-16.64s12.53,12.89,15.42,17.5
	c2.89,4.61,13.08,13.28,13.94,17.35c0.86,4.07,1.45,5.09,1.09,10.85c-0.28,4.37-0.91,7.92-9.2,16.92
	c-5.81,6.31-12.65,19.05-12.65,19.05s6.42-7.57,10.81-12.18c4.39-4.61,13.11-13.16,14.1-18.88c1.08-6.23,0.06-13.25,0.06-13.25
	s4.98,10.54,5.35,19.13c0.28,6.58-3.34,20.91-13.13,32.75c-4.25,5.14-9.06,21.54-9.06,21.54s2.12-3.78,6.84-7.96
	c0,0-1.12,9.4-0.41,16.12c0,0,3.47-14.28,3.69-21.14c0.21-6.86,2.42-8.02,4.45-10.6c2.04-2.57,8.71-14.68,9.67-20.78
	c0.96-6.11,1.51-15.71-0.9-22.01c-2.48-6.46-6.9-17.75-13.23-25.64c-2.44-3.05,8.15-5.88,8.15-5.88s6.29-1.41,10.79-0.01
	c2.26,0.71,3.94,3.34,3.94,3.34s-1.47-5.98-3.94-6.3s-5.75-1.2-10.21-0.52c-6.19,0.93-17.76,3.29-19.91-0.14
	c-5.03-8.05-13.1-19.18-18.13-27.69c-2.16-3.65-0.94-10.91-1.48-20.88c-0.54-9.96-0.56-9.08-0.28-14.19
	C280.88,231.07,284.81,228.2,286.96,228.26z"/>
<path id="pulmonaryTube2_21_" class="st0" d="M384.25,137.06c-5.49,0.39-9.19,3.25-10.53,11.58c-1.34,8.33,2.81,11.18,6.67,11.18
	s10.93-4.49,10.64-11.63C390.74,141.05,387.28,136.85,384.25,137.06z"/>
<path id="pulmonaryTube1_21_" class="st0" d="M403.2,148.64c-5.65,0-12.17,0.58-12.17,10.1c0,9.52,4.48,7.91,7.75,7.91
	c3.27,0,9.5-5.76,9.5-11.26C408.29,149.89,407.5,148.64,403.2,148.64z"/>
<path id="pulmonary_21_" class="st0" d="M290.69,153.64c11.8-2.71,49.67-36.5,49.67-36.5l-6.2,5.4c0,0,17.62,2.96,22.43,4.05
	c4.81,1.09,19.4,5.06,22.86,7.23c3.5,2.19,25.66,11.27,27.68,15.86c2.3,5.22,0.88,9.65-2.04,12.81c-4.94,5.33-4.39,4.81-9.92,8.29
	c-4.4,2.77-14,5.53-21.71,13.85c-6.37,6.87-18.71,23.82-25.19,30.26c0,0,1.62,5.07,0.17,20.37c-1.65,17.37-3.76,22.7-3.76,22.7
	l-3.16-1.94c0,0-0.01-0.74-2.95-0.6c-4.47,0.22-5.3,0.59-10.19-2.89c-2.84-2.02-4.58-4.62-8.66-6.28c-4.09-1.66-12.57-9.15-15-11.36
	s-11.18-8.08-11.18-8.08"/>
<path id="outside_21_" class="st0" d="M344.68,257.97c0,0,2.22,19.77,1.96,30.25c-0.26,10.47,1.22,19.95-0.25,26.83
	c-3.1,14.47-8.29,23.1-13.4,31.53c-5.11,8.43-7.47,20.7-12.83,30.41c-5.37,9.71-8.4,30.61-10.87,36.64
	c-2.36,5.74-9.98,21.77-17.02,31.21c-7.6,10.2-20.47,38.66-47.95,39.54c-20.08,0.64-37.93-19.31-45.85-25.45
	c-7.92-6.13-21.97-25.98-28.39-33.23c-12.01-13.56-18.58-27.82-23.36-37.98c-3.17-6.74-10.73-24.2-16.57-44.13
	c-3.32-11.32-2.56-32.05-2.7-44.05c-0.28-22.57-1.21-12.22-0.28-25.7c0.8-11.62,3.23-17.93,3.53-23.82
	c5.29-29.8,18.76-62.54,19.89-79c1.34-19.55,22.01-29.12,22.01-29.12s-21.51,10.74-21.67,25.34c-0.17,14.89-19.8,68.05-20.23,82.78
	c0,0-16.45-18.75-19.82-32.02c-3.24-12.78-0.86-44.76,5.91-50.87c1.3-1.17,5.18-14.72,13.6-18.73c3.24-1.54,13.51-5.57,15.99-6.5
	c3.59-1.36,9.8-1.04,12.24-0.63c2.26,0.38,11.47,1.65,13.97,0.63"/>
</svg>
