<?xml version="1.0" encoding="utf-8"?>
<!-- Generator: Adobe Illustrator 25.1.0, SVG Export Plug-In . SVG Version: 6.00 Build 0)  -->
<svg version="1.1" id="Layer_2" xmlns="http://www.w3.org/2000/svg" xmlns:xlink="http://www.w3.org/1999/xlink" x="0px" y="0px"
	 viewBox="0 0 500 500" style="enable-background:new 0 0 500 500;" xml:space="preserve">
<style type="text/css">
	.st0{fill:none;stroke:#000000;stroke-miterlimit:10;}
</style>
<path id="Aorta_16_" class="st0" d="M326.66,52.12c0,0-2.39,0.11-5.9,5.88s-7.53,15.24-8.62,17.41c-1.09,2.18-4.19,5.69-4.44,7.95
	s1.91,0.47,3.08-1.29s6.41-11.42,8.5-15.19c2.09-3.77,7.38-11.53,7.38-13.79s-0.96-3.59-1.88-4.18c-0.92-0.59-7.13-1.96-9.22-3.97
	s-4.31-7.9-4.15-12.92s0.08-21.93,0.08-21.93s-1.04-8.35-11.92-7.85s-13.17,4.67-13.17,4.67l-2.66,22.24c0,0-1.63,2.07-4.23,2.15
	c-2.6,0.08-7.02-1.28-7.02-1.28l-1.56-24.08c0,0-4.27-1.02-9.04,0.4c-4.77,1.42-11.19,3.36-11.19,3.36s-0.37,17.32-1.12,18.49
	c-0.75,1.17-10.07,0.9-11.58,0.4c-1.51-0.5-4.75-13.08-4.75-13.08s-3.74-1.85-9.01,0.16c-5.27,2.01-8.84,6.02-8.84,6.02
	s0.24,11.11-1.85,13.54s-6.04,6.72-12.15,12.49s-11.11,15.43-14.46,19.78c-3.35,4.35-12.15,17.3-16.08,25.91
	c-3.82,8.38-4.51,22.63-3.7,30.08c0.91,8.37,8.13,19.83,8.13,19.83s8.86-5.19,12.02-7c3.15-1.81,10.3-5.42,17.45-7.27
	c0,0,20.48-17.27,23.94-19.4c3.47-2.13,8.99-13.39,15.83-16.1c6.84-2.7,15.74-4.61,25.28-4.77c9.54-0.16,22.26,0.32,24.17,3.02
	c0,0,11.2,0.72,11.88-1.33c1.44-4.39,2.2-6.01,2.19-5.84"/>
<path id="VenaCarva_16_" class="st0" d="M309.68,91.65c0.08-3.49,1.77-6.19,5.31-6.19s7.83,2.18,10.19,3.69
	c2.36,1.5,11.98,8.42,15.49,13.83c2.38,3.67,7.27,13.76,2.39,17.3c-4.89,3.54-13.75,1.87-16.87,0.49
	c-6.45-2.85-11.21-11.75-12.61-14.47C312.11,103.46,309.59,95.33,309.68,91.65z"/>
<path id="Veins_16_" class="st0" d="M283.17,217.28c0,0,14.83,1.48,19.21-0.17c4.39-1.65,9.05-1.44,17.28-3.6
	c7.12-1.86,7.18-5.54,10.43-8.35c3.59-3.1,7.35-13.45,6.36-17.85c-1.04-4.66-1.62-3.66-3.01-7.02c-1.38-3.36-9.13-34.63-37.26-26.63
	c-24.87,7.07-32.83,40.9-33.54,47.58c-0.91,8.48,2.61,19.52-1.61,28.08c-4.1,8.33-16.68,36.83-22.43,45.85
	c-9.84,15.45-29.6,7.41-40.43,8.82c-10.84,1.41-17.59,4.55-17.59,4.55s11.62-3.61,17.59-3.93c5.97-0.31,25,1.7,25,1.7l-7.35,5.38
	c0,0-9.57-0.28-15.72,2.86c-6.15,3.14-15.36,11.28-18.51,11.83c-3.14,0.55-6.42-4.24-13.4-3.42c-6.97,0.82-9.16,2.87-9.16,2.87
	s3.71-2.26,8.74-2.43s12.03,4.34,12.03,4.34s-4.27,8.12-4.86,11.46s-1.31,7.05-4.9,8.24c-3.58,1.19-9.32,2.39-14.58,1.67
	c-5.26-0.72-11.59-0.6-11.59-0.6s8.95,0.89,11.56,1.25s10.47,0.41,14.56-1.69c4.09-2.09,5.16-3.37,6.23-8.79
	c1.07-5.41,5.67-11.9,5.67-11.9s16.14-8.22,19.41-10.01c3.27-1.79,14.3-2.76,14.3-2.76s-8.5,17.94-10.55,22.49
	s-18.81,29.76-29.14,33.27c0,0,14.75-8.18,20.06-17.56c5.31-9.38,10.52-15.38,10.52-15.38s-3.57,26.66-7.08,38.36
	c-3.51,11.7-12.52,28.23-16.15,40.75c-1.85,6.39-10.44,2.8-14.62,6.43c-3.12,2.71-0.42,7.14-5.1,8.31
	c-4.68,1.17-5.29,1.67-5.29,1.67s4.81,0.82,7.41-0.05s2.66-6.88,4.34-7.98c3.79-2.49,12.41,1,16.02,5.56
	c2.66,3.36,14.96,18.73,17.47,34.48c0,0-2.59-17.3-6.94-25.57c-4.35-8.27-10.05-16.14-9.83-20.82c0.22-4.68,5.74-10.5,7.48-15.29
	c1.74-4.79,8.49-22.64,10.34-28.95s3.95-33.46,4.1-39.36c0.15-5.9,8.27-20.46,10.01-21.66c1.74-1.2,13.53-9.07,17.4-12.52
	c3.87-3.45,10.24-14.93,12.54-19.94c2.3-5.01,12.66-29.9,22.47-28.67c9.81,1.23,3.68,13.98,5.39,20.84
	c1.72,6.87,4.51,9.81,4.01,17.61c-0.5,7.8-4,24.37-4,31.16s2.91,19.5,4.42,24.53c1.51,5.03,1.28,7.51,0.53,15.06
	c-0.75,7.55-1.37,9.48-1.37,9.48s5.87-12.73,5.62-19.02c0,0,9.78,2.54,11.54,12.6c0,0-3.74-14.67-10.96-19.9
	c-7.21-5.23-5.57-21.63-5.68-25.48c-0.11-3.86,2.13-15.19,6.06-14.51c0,0,9.07,10.86,11.97,15.47c2.89,4.61,13.07,16.44,13.93,20.51
	s1.09,10.2-0.51,14.27c-1.61,4.07-0.95,8.19-10.17,16.24c-6.34,5.53-12.65,13.08-12.65,13.08s16.38-10.95,20.77-15.55
	c4.39-4.61,5.15-8.48,6.84-14.02c1.63-5.34,0.51-8.2,0.51-8.2c0.82-0.5,7.52,11.49,6.5,20.77c-0.72,6.5-1.77,13.49-11.62,24.53
	c-9.86,11.03-13.85,31.11-13.85,31.11s4.69-9.75,9.4-13.93c0,0,0.92,20.8,1.62,27.52c0,0,2.69-19.72,2.91-26.58
	c0.21-6.86,0.1-10.68,2.14-13.25c2.04-2.57,11.63-14.87,12.59-20.98s1.75-17.5-1.56-23.38c-3.56-6.31-2.41-8.75-8.2-16.11
	c-7.03-8.94-7.44-14.48-7.44-14.48s18.94-3.38,23.43-1.97c2.26,0.71,10.03,4.15,10.03,4.15s-7.25-5.98-9.79-6.62
	c-2.42-0.61-9.91-1.16-14.41-1.59c-4.5-0.43-15.24-0.79-17.38-4.22c-2.14-3.43-9.24-14.84-12.14-17.95
	c-2.89-3.11-6.6-11.97-7.14-21.93c-0.54-9.96,0.64-16.94-0.82-21.85C280.26,225.1,281.02,217.22,283.17,217.28z"/>
<path id="pulmonaryTube2_16_" class="st0" d="M384.27,139.05c-5.49,0.39-9.21,1.26-10.55,9.59c-1.34,8.33,2.81,11.18,6.67,11.18
	s10.93-4.49,10.64-11.63C390.74,141.05,387.3,138.83,384.27,139.05z"/>
<path id="pulmonaryTube1_16_" class="st0" d="M403.2,148.64c-5.65,0-12.17,0.58-12.17,10.1c0,9.52,6.92,8.29,10.19,8.29
	s7.46-4.35,7.46-9.85C408.68,151.68,407.5,148.64,403.2,148.64z"/>
<path id="pulmonary_16_" class="st0" d="M291.43,155.43c11.8-2.71,51.63-35.15,51.63-35.15l-8.86,7.03c0,0,15.81,2.85,20.62,3.94
	c4.81,1.09,19.87,4.06,23.7,5.48c3.35,1.24,26.4,7.83,28.69,13.52c2.13,5.29,2.68,9.04-0.25,12.2c-4.94,5.33-3.83,5.23-9.35,8.72
	c-4.4,2.77-12,4.16-16.49,12.38c-3.99,7.28-13.59,26.69-20.21,34.08c0,0,2.43,2.55,0.98,17.85c-1.65,17.37-3.21,21.05-3.21,21.05
	s-0.9-0.49-5.43,0.06c-4.53,0.55-5.12-6.6-9.99-6.6c-4.2,0,0.8,4.85-10.62,4.02c-11.42-0.83-13.3-6.75-17.39-8.41
	c-4.09-1.66-7.36-7.81-9.79-10.02s-11.78-17.72-11.78-17.72"/>
<path id="outside_16_" class="st0" d="M358.69,256.54c0,0,1.51,22.71,1.25,33.18c-0.26,10.47,2.15,21.44,0.23,28.21
	c-3.98,14.03-14.28,30.81-18.88,39.49c-4.61,8.71-9.83,19.42-15.2,29.13c-5.37,9.71-10.78,25.67-13.59,31.55
	c-2.81,5.88-7.07,18.6-14.85,28.9c-7.67,10.15-29.91,40.9-58.39,41.82c-20.08,0.65-35.6-21.02-43.52-27.16
	c-7.92-6.13-25.92-29.65-32.33-36.89c-9.77-11.03-19.7-32.6-23.53-40.74c-3.17-6.74-12.1-27.85-17.93-47.78
	c-3.32-11.32-3.21-37.74-3.36-49.75c-0.28-22.57,0.91-29.14,3.82-42.34c2.4-10.89,1.27-11.93,2.55-15.5s3.98-0.09,4.28-3.24
	c0.38-4.08,2.88-10.05,4.28-12.03c1.4-1.98,2.46-8.5,4.4-11.68c1.51-2.49,1.73-7.39,3.24-10.3c1.51-2.91,1.64-8.12,3.03-11.01
	c1.81-3.75,1.17-10.82,2.4-12.48c1.04-1.4,3.47-10.07,6.13-12.61c2.6-2.48,5.31-5.43,7.64-6.71c2.33-1.28,6.96-1.58,9.01-2.43
	c2.12-0.87,3.44-1.83,5.94-2.85"/>
</svg>
