<?xml version="1.0" encoding="utf-8"?>
<!-- Generator: Adobe Illustrator 25.1.0, SVG Export Plug-In . SVG Version: 6.00 Build 0)  -->
<svg version="1.1" id="Layer_2" xmlns="http://www.w3.org/2000/svg" xmlns:xlink="http://www.w3.org/1999/xlink" x="0px" y="0px"
	 viewBox="0 0 500 500" style="enable-background:new 0 0 500 500;" xml:space="preserve">
<style type="text/css">
	.st0{fill:none;stroke:#000000;stroke-miterlimit:10;}
</style>
<path id="Aorta_23_" class="st0" d="M326.66,52.12c0,0-2.39,0.11-5.9,5.88s-7.53,15.24-8.62,17.41c-1.09,2.18-4.19,5.69-4.44,7.95
	s1.91,0.47,3.08-1.29s6.41-11.42,8.5-15.19c2.09-3.77,7.38-11.53,7.38-13.79s-0.64-5-1.56-5.59c-0.92-0.59-7.13-1.96-9.22-3.97
	c-2.09-2.01-2.73-6.88-2.56-11.9s0.14-21.75,0.14-21.75s-3.01-8.14-13.9-7.64s-13.17,4.67-13.17,4.67l-2.66,22.24
	c0,0-1.63,2.07-4.23,2.15c-2.6,0.08-7.02-1.28-7.02-1.28l-1.56-24.08c0,0-4.27-1.02-9.04,0.4c-4.77,1.42-11.19,3.36-11.19,3.36
	s-0.37,17.32-1.12,18.49c-0.75,1.17-10.07,0.9-11.58,0.4c-1.51-0.5-4.75-13.08-4.75-13.08s-3.74-1.85-9.01,0.16
	c-5.27,2.01-9.41,6-9.41,6s0.59,9.89-1.5,12.32c-2.09,2.43-10.59,9.49-16.7,15.27c-6.11,5.78-14.86,16.35-18.21,20.7
	c-3.35,4.35-9.45,15.03-13.37,23.65c-3.82,8.38-1.57,18.84-0.76,26.29c0.91,8.37,9.01,21.74,9.01,21.74s10.85-3.51,14.01-5.32
	c3.15-1.81,7.45-5.59,14.6-7.45c0,0,19.27-19.57,22.74-21.7c3.47-2.13,13.04-10.93,19.88-13.63c6.84-2.7,15.74-4.61,25.28-4.77
	c9.54-0.16,22.26,0.32,24.17,3.02c0,0,11.2,0.72,11.88-1.33c1.44-4.39,2.2-8.1,2.19-7.94"/>
<path id="VenaCarva_23_" class="st0" d="M309.68,89.56c0.08-3.49-0.92-7.24,2.62-7.24s7.83,2.18,10.19,3.69
	c2.36,1.5,11.98,8.42,15.49,13.83c2.38,3.67,7.27,13.76,2.39,17.3s-13.75,1.87-16.87,0.49c-6.45-2.85-11.21-11.75-12.61-14.47
	C309.41,100.32,309.59,93.24,309.68,89.56z"/>
<path id="Veins_23_" class="st0" d="M286.12,222.92c0,0,9.68-0.36,14.05-2.01c4.39-1.65,10.71-1.61,18.94-3.76
	c7.12-1.86,15.82-4.09,19.07-6.9c3.59-3.1,0.88-7.4,0.88-7.4s5.85-7.2,3.76-10.16c-6.27-8.91-33.75-38.02-46.64-39.02
	c-29.15-2.26-29.98,41.3-30.69,47.99c-0.91,8.48-0.24,19.12-4.46,27.68c-4.1,8.33-25.95,35.62-31.02,45.04
	c-8.74,16.27-20.95,13.56-28.51,13.73c-10.58,0.24-20.93,0.45-20.93,0.45s11.08,0.71,16.99,1.57c6.19,0.9,20.37,0,20.37,0
	l-3.73,6.41c0,0-6.93-3.39-13.08-0.25c-6.15,3.14-18.49,9.91-21.63,10.46c-3.14,0.55-6.42-4.24-13.4-3.42s-9.16,2.87-9.16,2.87
	s3.71-2.26,8.74-2.43c5.03-0.17,12.03,4.34,12.03,4.34s-4.27,8.12-4.86,11.46s-1.31,7.05-4.9,8.24c-3.58,1.19-9.32,2.39-14.58,1.67
	c-5.26-0.72-11.59-0.6-11.59-0.6s8.95,0.89,11.56,1.25s10.47,0.41,14.56-1.69c4.09-2.09,5.16-3.37,6.23-8.79s5.67-11.9,5.67-11.9
	s18.23-8.57,21.5-10.36c3.27-1.79,11.66,0.36,11.66,0.36s-5.86,14.82-7.91,19.38s-18.81,29.76-29.14,33.27
	c0,0,14.75-8.18,20.06-17.56c5.31-9.38,10.52-15.38,10.52-15.38s-5.05,26.22-8.12,38.05c-3.06,11.77-6.89,18.34-11.07,30.88
	c-4.13,12.36-7.48,16.78-11.57,17.37c-4.09,0.58-5.85,0.82-10.21,2.88c-4.56,2.16-7.45,8.41-7.45,8.41s5.2-4.17,7.81-5.05
	c2.6-0.87,5.44-2.05,7.45-2.16c2-0.11,5.05,0.73,8.29,2.88c3.14,2.09,15.75,19.21,18.26,34.96c0,0-2.13-16.83-6.49-25.11
	c-4.35-8.27-5.5-10.94-5.29-15.62c0.22-4.68,0.4-14.65,2.14-19.44c1.74-4.79,8.49-22.64,10.34-28.95s7.91-35.67,8.05-41.57
	c0.15-5.9,5.63-17.35,7.37-18.54c1.74-1.2,8.37-10.05,12.25-13.5c3.87-3.45,13.52-18.45,16.22-23.26
	c3.2-5.71,16.77-28.71,26.58-27.49c9.81,1.23,3.26,15.14,4.61,22.08c2.63,13.53,5.84,16.96,6.77,24.43
	c0.96,7.76-2.95,18.52-2.95,25.31c0,6.79,5.95,21.53,7.46,26.56c1.51,5.03-0.82,5.13,0.38,12.22c1.26,7.48,1.32,12.97,1.32,12.97
	s1.69-13.25,1.44-19.54c0,0,12.03,5.9,13.79,15.97c0,0-1.93-12.69-9.14-17.92c-7.21-5.23-10.59-23.59-10.7-27.44
	c-0.11-3.86,0.84-17.56,0.84-17.56s21.02,12.08,24.65,16.12c3.59,4,10.25,10.93,13.18,14.75c2.53,3.31,5.2,8.34,4.25,14.95
	c-0.62,4.33,1.06,10.35-7.23,19.36c-5.81,6.31-14.84,22.02-14.84,22.02s7.28-9.47,11.68-14.08c4.39-4.61,13.34-15.05,14.34-20.78
	c1.08-6.23,0.42-8.47,0.42-8.47s5.27,6.13,5.64,14.73c0.28,6.58-3.61,19.31-12.06,32.74c-3.55,5.64-12.79,27.11-12.79,27.11
	s2.12-3.78,6.84-7.96c0,0-1.12,9.4-0.41,16.12c0,0,3.37-12.89,3.58-19.75c0.21-6.86,5.06-12.84,6.7-15.69
	c1.85-3.21,9.59-22.69,10.55-28.8c0.96-6.11,0.62-16.17-3.23-21.71c-4.27-6.14-15.6-24.72-14.28-24.96c0,0,0.78-0.14,4.45-1.16
	c3.67-1.02,6.67-2,11.06-2.65c2.35-0.34,10.21,1.28,10.21,1.28s-5.75-3.2-8.22-3.52s-6.68-0.99-11.15-0.31
	c-6.19,0.93-12.69,0.2-15.46-2.75c-8.76-9.32-23.99-20.82-29.02-29.34c-2.16-3.65-2.29-6.63-2.82-16.6
	c-0.54-9.96-0.56-9.08-0.28-14.19C280.88,231.07,283.97,222.87,286.12,222.92z"/>
<path id="pulmonaryTube2_23_" class="st0" d="M386.44,137.25c-5.49,0.39-9.19,3.25-10.53,11.58c-1.34,8.33,2.81,11.18,6.67,11.18
	s10.94-4.49,10.64-11.63S389.47,137.03,386.44,137.25z"/>
<path id="pulmonaryTube1_23_" class="st0" d="M405.4,148.82c-5.65,0-12.17,0.58-12.17,10.1c0,9.52,4.48,7.91,7.75,7.91
	s9.5-5.76,9.5-11.26C410.48,150.07,409.69,148.82,405.4,148.82z"/>
<path id="pulmonary_23_" class="st0" d="M290.69,153.64c11.8-2.71,49.67-36.5,49.67-36.5l-6.2,5.4c0,0,17.62,2.96,22.43,4.05
	c4.81,1.09,21.59,5.25,25.05,7.42c3.5,2.19,25.66,11.27,27.68,15.86c2.3,5.22,0.88,9.65-2.04,12.81c-4.94,5.33-4.39,4.81-9.92,8.29
	c-4.4,2.77-12.3,1.7-20.02,10.02c-6.37,6.87-14.33,27.46-20.81,33.89c0,0,4.48,5.83,3.03,21.12c-1.65,17.37-4.44,19.81-4.44,19.81
	l-5.65-0.85c0,0-7.14-0.94-9.93-1.89c-4.16-1.42-3.32-2.19-8.22-5.67c-2.84-2.02-7.45-3.79-11.53-5.45
	c-4.09-1.66-10.6-7.34-13.03-9.55c-2.43-2.21-11.57-10.35-11.57-10.35"/>
<path id="outside_23_" class="st0" d="M355.14,255.83c0,0,2.43,19.94,2.17,30.41c-0.26,10.47-0.6,24.76-2.08,31.64
	c-3.1,14.47-11.4,28.28-13.69,37.87c-2.74,11.43-7.01,18.62-12.37,28.33c-5.37,9.71-8.58,27.22-11.05,33.24
	c-2.36,5.74-12.13,20.97-19.17,30.41c-7.6,10.2-27.66,43.62-55.15,43.63c-29.3,0.02-43.85-20.48-50.62-27.86
	c-7.2-7.83-24.01-25.93-30.13-33.43c-11.65-14.29-20.15-30.07-24.93-40.23c-3.17-6.74-12.11-24.65-17.94-44.58
	c-3.32-11.32-4.2-32.66-4.34-44.67c-0.28-22.57,0.3-15.03,1.23-28.52c0.8-11.62,4.57-22.85,4.88-28.74
	c4.09-54.37,18.91-57.84,21.57-76.64c2.2-15.54,29.35-24.73,29.11-24.82c0,0-25.91,10.57-29.11,24.82
	c-5.01,22.27-19.29,30.13-21.57,76.64c0,0-8.94-12.02-12.31-25.28c-3.24-12.78,0.08-31.5,9.4-45.93c0.95-1.47,6.4-14.54,14.82-18.54
	c3.24-1.54,12.08-6.99,14.56-7.93c3.59-1.36,9.44-2.9,11.91-3.04c2.26-0.13,10.5-0.37,13-0.96"/>
</svg>
