<?xml version="1.0" encoding="utf-8"?>
<!-- Generator: Adobe Illustrator 25.1.0, SVG Export Plug-In . SVG Version: 6.00 Build 0)  -->
<svg version="1.1" id="Layer_2" xmlns="http://www.w3.org/2000/svg" xmlns:xlink="http://www.w3.org/1999/xlink" x="0px" y="0px"
	 viewBox="0 0 500 500" style="enable-background:new 0 0 500 500;" xml:space="preserve">
<style type="text/css">
	.st0{fill:none;stroke:#000000;stroke-miterlimit:10;}
</style>
<path id="Aorta_19_" class="st0" d="M326.66,52.12c0,0-2.39,0.11-5.9,5.88s-9.07,14.72-10.16,16.9c-1.09,2.18-2.65,6.21-2.9,8.47
	s1.91,0.47,3.08-1.29s8.76-10.13,10.85-13.9s5.03-12.82,5.03-15.08s-0.64-5-1.56-5.59c-0.92-0.59-7.13-1.96-9.22-3.97
	c-2.09-2.01-2.73-6.88-2.56-11.9s0.14-21.75,0.14-21.75s-3.01-8.14-13.9-7.64s-13.17,4.67-13.17,4.67l-2.66,22.24
	c0,0-1.63,2.07-4.23,2.15c-2.6,0.08-7.02-1.28-7.02-1.28l-1.56-24.08c0,0-4.27-1.02-9.04,0.4c-4.77,1.42-11.19,3.36-11.19,3.36
	s-0.37,17.32-1.12,18.49c-0.75,1.17-10.07,0.9-11.58,0.4c-1.51-0.5-4.75-13.08-4.75-13.08s-3.67,0.46-8.95,2.47s-8.4,5.33-8.4,5.33
	s0.96,9.05-1.13,11.47c-2.09,2.43-12.03,8.69-18.14,14.47c-6.11,5.78-13.58,18.19-16.93,22.54c-3.35,4.35-7.87,11.91-11.8,20.53
	c-3.82,8.38-3.08,18.14-2.27,25.59c0.91,8.37,6.73,21.64,6.73,21.64s10.19-5.19,13.34-7c3.15-1.81,7.58-4.2,14.73-6.06
	c0,0,22.66-15.64,26.12-17.76s12.41-10.25,19.25-12.96c6.84-2.7,14.46-6.84,24-7c9.54-0.16,22.27-1.07,24.18,1.63
	c0,0,11.2,2.11,11.87,0.06c1.44-4.39,2.2-8.1,2.19-7.94"/>
<path id="VenaCarva_19_" class="st0" d="M309.68,89.56c0.08-3.49-0.92-7.24,2.62-7.24s7.83,2.18,10.19,3.69
	c2.36,1.5,11.98,8.42,15.49,13.83c2.38,3.67,10.2,15.48,5.31,19.01s-16.68,0.15-19.8-1.23c-6.45-2.85-11.21-11.75-12.61-14.47
	C309.41,100.32,309.59,93.24,309.68,89.56z"/>
<path id="Veins_19_" class="st0" d="M284.32,224.91c0,0,11.47-2.35,15.85-4c4.39-1.65,10.71-1.61,18.94-3.76
	c7.12-1.86,15.82-4.09,19.07-6.9c3.59-3.1,2.82-9.26,2.82-9.26s3.56-7.44,1.47-10.41c-6.27-8.91-33.4-35.91-46.29-36.91
	c-29.15-2.26-29.98,41.3-30.69,47.99c-0.91,8.48-0.24,19.12-4.46,27.68c-4.1,8.33-25.95,35.62-31.02,45.04
	c-8.74,16.27-20.95,13.56-28.51,13.73c-10.58,0.24-20.93,0.45-20.93,0.45s11.08,0.71,16.99,1.57c6.19,0.9,20.37,0,20.37,0
	l-3.73,6.41c0,0-6.93-3.39-13.08-0.25c-6.15,3.14-18.49,9.91-21.63,10.46c-3.14,0.55-6.42-4.24-13.4-3.42s-9.16,2.87-9.16,2.87
	s3.71-2.26,8.74-2.43c5.03-0.17,12.03,4.34,12.03,4.34s-4.27,8.12-4.86,11.46s-1.31,7.05-4.9,8.24c-3.58,1.19-9.32,2.39-14.58,1.67
	c-5.26-0.72-11.59-0.6-11.59-0.6s8.95,0.89,11.56,1.25s10.47,0.41,14.56-1.69c4.09-2.09,5.16-3.37,6.23-8.79s5.67-11.9,5.67-11.9
	s18.23-8.57,21.5-10.36c3.27-1.79,11.66,0.36,11.66,0.36s-5.86,14.82-7.91,19.38s-18.81,29.76-29.14,33.27
	c0,0,14.75-8.18,20.06-17.56c5.31-9.38,10.52-15.38,10.52-15.38s-7.47,25.81-10.54,37.63c-3.06,11.77-9.86,16.57-13.42,29.49
	c-3.46,12.56-3.64,12.78-5.47,16.49c-1.06,2.15-4.68,6.65-9.74,6.99c-4.81,0.32-16.02,12.71-16.02,12.71s13.39-7.36,16.07-6.77
	c4.18,0.91,4.41,0.87,6.38,1.74c1.88,0.83,6.83,2.27,9.48,5.11c5.55,5.97,12.7,22.72,15.21,38.47c0,0-1.57-23.53-9.11-39.52
	c-3.99-8.45-3.78-16.94-3.56-21.62s0.16-9.79,1.91-14.58c1.74-4.79,10.25-20.61,12.1-26.93c1.85-6.31,8.73-35.77,8.88-41.67
	c0.15-5.9,5.63-17.35,7.37-18.54c1.74-1.2,8.37-10.05,12.25-13.5c3.87-3.45,13.52-18.45,16.22-23.26
	c3.2-5.71,16.77-28.71,26.58-27.49c9.81,1.23,3.18,15.49,4.9,22.35c1.72,6.87,10.75,14.13,10.25,21.93s-3.66,22.23-3.66,29.03
	s4.75,21.82,6.26,26.85c1.51,5.03,0.75,6.61,0,14.16c-0.75,7.55-2.16,10.7-2.16,10.7s7.49-14.46,7.24-20.75
	c0,0,12.03,5.9,13.79,15.97c0,0-1.93-12.69-9.14-17.92s-9.96-24.22-10.07-28.08s3.01-22.72,3.01-22.72s14.41,17.65,18.05,21.69
	c3.59,4,8.08,11.65,12.61,13.3c2.99,1.09,8.56,6.62,7.22,15.15c-0.68,4.32,1.22,12.64-7.07,21.65
	c-5.81,6.31-17.39,20.99-17.39,20.99s8.67-6.78,13.06-11.39c4.39-4.61,14.37-15.92,15.37-21.65c1.08-6.23,1.73-10.46,1.73-10.46
	s3.65,7.8,4.91,16.31c0.98,6.63-2.66,20.22-11.47,33.62c-3.66,5.57-18.9,33.55-18.9,33.55s3.58-5.64,8.3-9.81
	c0,0-0.78,7.64-0.07,14.36c0,0,5.7-18.54,7.43-24.75c1.84-6.61,6.3-11.3,7.94-14.14c1.85-3.21,9.64-18.07,10.61-24.17
	c0.96-6.11-2.28-24.98-6.13-30.52c-4.27-6.14-17.11-22.2-15.79-22.44c0,0,0.43-0.79,4.1-1.81c3.67-1.02,7.02-1.35,11.41-1.99
	c2.35-0.34,11.54,0.05,11.54,0.05s-6.99-3-9.45-3.32s-6.78,0.05-11.25,0.73c-6.19,0.93-12.76-1.82-15.52-4.77
	c-8.76-9.32-20.73-21.43-25.76-29.94c-2.16-3.65-3.72-4.62-4.26-14.58c-0.54-9.96-2.03-9.93-1.75-15.05
	C281.17,229.6,282.18,224.86,284.32,224.91z"/>
<path id="pulmonaryTube2_19_" class="st0" d="M386.44,137.25c-5.49,0.39-9.19,3.25-10.53,11.58c-1.34,8.33,2.81,11.18,6.67,11.18
	s10.94-4.49,10.64-11.63S389.47,137.03,386.44,137.25z"/>
<path id="pulmonaryTube1_19_" class="st0" d="M405.4,148.82c-5.65,0-12.17,0.58-12.17,10.1c0,9.52,6.21,9.25,9.48,9.25
	c5.24,0,7.78-7.09,7.78-12.59C410.48,150.07,409.69,148.82,405.4,148.82z"/>
<path id="pulmonary_19_" class="st0" d="M290.69,153.64c11.8-2.71,52.6-34.78,52.6-34.78l-6.2,5.4c0,0,14.7,1.24,19.51,2.34
	c4.81,1.09,21.59,5.25,25.05,7.42c3.5,2.19,25.66,11.27,27.68,15.86c2.3,5.22,1.7,11.75-1.23,14.9c-4.94,5.33-5.2,2.71-10.73,6.2
	c-4.4,2.77-8.5,1.57-15.05,10.84c-4.83,6.84-9.44,29.86-16.47,34.47c0,0,6.89,6.1,5.45,21.4c-1.65,17.37-5.65,20.9-5.65,20.9
	s-4.47-5.3-7.21-5.29c-2.74,0.01-15.05-1.39-17.84-2.34c-4.16-1.42-4.37-0.05-9.26-3.53c-2.84-2.02-7.51-6.47-11.6-8.12
	c-4.09-1.66-10.54-4.67-12.97-6.88c-2.43-2.21-8.81-10.79-8.81-10.79"/>
<path id="outside_19_" class="st0" d="M365.66,258.59c0,0,4.46,18.2,4.2,28.67c-0.26,10.47-0.01,28.14-1.48,35.02
	c-3.1,14.47-12.71,26.54-16.78,35.52c-4.88,10.76-9.52,20.17-14.89,29.88c-5.37,9.71-13.4,25.66-15.87,31.69
	c-2.36,5.74-9.56,19.52-17.73,28.88c-8.36,9.59-33.75,46.49-61.24,46.51c-29.3,0.02-45.94-20.02-52.72-27.4
	c-7.2-7.83-27.15-23.4-33.26-30.9c-11.65-14.29-21.4-31.01-26.18-41.18c-3.17-6.74-16.17-23.51-24.34-42.63
	c-4.63-10.85-8.76-33.96-9.87-45.92c-1.89-20.46-1.14-10.58-0.53-24.66c0.5-11.64,0.15-10.07,1.05-16.62s-0.56-4.57,2.44-16.98
	c4.47-18.47,1.59-7.56,3.29-15.53s2.55-10.55,3.29-13.7c0.74-3.15-2.17-3.57,4.23-11.79c5.63-7.24-0.07-2.84,6.55-13.97
	c4.4-7.39,5.27-8.19,11.14-18.82c0.84-1.53,7.84-13.89,14.84-19.55c2.79-2.26,7.78-7.99,10.27-8.93c3.59-1.36,7.73-3.48,10.71-4.61
	c2.12-0.81,7.11-1.42,9.61-2.01"/>
</svg>
